G04 PROTEUS GERBER X2 FILE*
%TF.GenerationSoftware,Labcenter,Proteus,8.9-SP0-Build27865*%
%TF.CreationDate,2023-09-22T01:56:32+00:00*%
%TF.FileFunction,Legend,Top*%
%TF.FilePolarity,Positive*%
%TF.Part,Single*%
%TF.SameCoordinates,{f1bbcda0-0957-4744-b51b-1f7c2430d0f4}*%
%FSLAX45Y45*%
%MOMM*%
G01*
%TA.AperFunction,Material*%
%ADD71C,0.203200*%
%ADD20C,0.200000*%
%ADD21C,0.127000*%
%TA.AperFunction,Profile*%
%ADD70C,0.203200*%
%TD.AperFunction*%
D71*
X-10148652Y-7005348D02*
X-8370652Y-7005348D01*
X-8370652Y-6497348D01*
X-10148652Y-6497348D01*
X-10148652Y-7005348D01*
X-9450152Y-6426228D02*
X-9450152Y-6441468D01*
X-9434277Y-6456708D01*
X-9370777Y-6456708D01*
X-9354902Y-6441468D01*
X-9354902Y-6365268D01*
X-9291402Y-6395748D02*
X-9259652Y-6365268D01*
X-9259652Y-6456708D01*
X-9100902Y-6380508D02*
X-9116777Y-6365268D01*
X-9164402Y-6365268D01*
X-9180277Y-6380508D01*
X-9180277Y-6441468D01*
X-9164402Y-6456708D01*
X-9116777Y-6456708D01*
X-9100902Y-6441468D01*
X-9100902Y-6426228D01*
X-9116777Y-6410988D01*
X-9180277Y-6410988D01*
X-9671652Y-7099468D02*
X-9639902Y-7063908D01*
X-9608152Y-7063908D01*
X-9576402Y-7099468D01*
X-9576402Y-7135028D01*
X-9608152Y-7170588D01*
X-9639902Y-7170588D01*
X-9671652Y-7135028D01*
X-9671652Y-7099468D01*
X-9544652Y-7063908D02*
X-9544652Y-7152808D01*
X-9528777Y-7170588D01*
X-9465277Y-7170588D01*
X-9449402Y-7152808D01*
X-9449402Y-7063908D01*
X-9417652Y-7063908D02*
X-9322402Y-7063908D01*
X-9370027Y-7063908D02*
X-9370027Y-7170588D01*
X-9290652Y-7170588D02*
X-9290652Y-7063908D01*
X-9211277Y-7063908D01*
X-9195402Y-7081688D01*
X-9195402Y-7099468D01*
X-9211277Y-7117248D01*
X-9290652Y-7117248D01*
X-9163652Y-7063908D02*
X-9163652Y-7152808D01*
X-9147777Y-7170588D01*
X-9084277Y-7170588D01*
X-9068402Y-7152808D01*
X-9068402Y-7063908D01*
X-9036652Y-7063908D02*
X-8941402Y-7063908D01*
X-8989027Y-7063908D02*
X-8989027Y-7170588D01*
X-8687402Y-7099468D02*
X-8703277Y-7117248D01*
X-8750902Y-7117248D01*
X-8766777Y-7099468D01*
X-8766777Y-7081688D01*
X-8750902Y-7063908D01*
X-8703277Y-7063908D01*
X-8687402Y-7081688D01*
X-8687402Y-7152808D01*
X-8703277Y-7170588D01*
X-8750902Y-7170588D01*
X-8655652Y-7063908D02*
X-8655652Y-7117248D01*
X-8608027Y-7170588D01*
X-8560402Y-7117248D01*
X-8560402Y-7063908D01*
X-8321652Y-6917248D02*
X-8226402Y-6917248D01*
X-8274027Y-6881688D02*
X-8274027Y-6952808D01*
X-8305777Y-6717248D02*
X-8226402Y-6717248D01*
X-10171652Y-7178348D02*
X-8171652Y-7178348D01*
X-8171652Y-6328348D01*
X-10171652Y-6328348D01*
X-10171652Y-7178348D01*
X-7671652Y-7099468D02*
X-7639902Y-7063908D01*
X-7608152Y-7063908D01*
X-7576402Y-7099468D01*
X-7576402Y-7135028D01*
X-7608152Y-7170588D01*
X-7639902Y-7170588D01*
X-7671652Y-7135028D01*
X-7671652Y-7099468D01*
X-7544652Y-7063908D02*
X-7544652Y-7152808D01*
X-7528777Y-7170588D01*
X-7465277Y-7170588D01*
X-7449402Y-7152808D01*
X-7449402Y-7063908D01*
X-7417652Y-7063908D02*
X-7322402Y-7063908D01*
X-7370027Y-7063908D02*
X-7370027Y-7170588D01*
X-7290652Y-7170588D02*
X-7290652Y-7063908D01*
X-7211277Y-7063908D01*
X-7195402Y-7081688D01*
X-7195402Y-7099468D01*
X-7211277Y-7117248D01*
X-7290652Y-7117248D01*
X-7163652Y-7063908D02*
X-7163652Y-7152808D01*
X-7147777Y-7170588D01*
X-7084277Y-7170588D01*
X-7068402Y-7152808D01*
X-7068402Y-7063908D01*
X-7036652Y-7063908D02*
X-6941402Y-7063908D01*
X-6989027Y-7063908D02*
X-6989027Y-7170588D01*
X-6687402Y-7063908D02*
X-6766777Y-7063908D01*
X-6766777Y-7099468D01*
X-6703277Y-7099468D01*
X-6687402Y-7117248D01*
X-6687402Y-7152808D01*
X-6703277Y-7170588D01*
X-6750902Y-7170588D01*
X-6766777Y-7152808D01*
X-6655652Y-7063908D02*
X-6655652Y-7117248D01*
X-6608027Y-7170588D01*
X-6560402Y-7117248D01*
X-6560402Y-7063908D01*
X-6321652Y-6917248D02*
X-6226402Y-6917248D01*
X-6274027Y-6881688D02*
X-6274027Y-6952808D01*
X-6305777Y-6667248D02*
X-6226402Y-6667248D01*
X-8171652Y-7178348D02*
X-6171652Y-7178348D01*
X-6171652Y-6328348D01*
X-8171652Y-6328348D01*
X-8171652Y-7178348D01*
X-8148652Y-7009348D02*
X-6370652Y-7009348D01*
X-6370652Y-6501348D01*
X-8148652Y-6501348D01*
X-8148652Y-7009348D01*
X-7450152Y-6430228D02*
X-7450152Y-6445468D01*
X-7434277Y-6460708D01*
X-7370777Y-6460708D01*
X-7354902Y-6445468D01*
X-7354902Y-6369268D01*
X-7291402Y-6399748D02*
X-7259652Y-6369268D01*
X-7259652Y-6460708D01*
X-7180277Y-6369268D02*
X-7100902Y-6369268D01*
X-7100902Y-6384508D01*
X-7180277Y-6460708D01*
X-7294652Y-4251348D02*
X-7167652Y-4251348D01*
X-7167652Y-4314848D02*
X-6659652Y-4314848D01*
X-6659652Y-4187848D01*
X-7167652Y-4187848D01*
X-7167652Y-4314848D01*
X-6659652Y-4251348D02*
X-6532652Y-4251348D01*
X-7040652Y-4147208D02*
X-7040652Y-4055768D01*
X-6961277Y-4055768D01*
X-6945402Y-4071008D01*
X-6945402Y-4086248D01*
X-6961277Y-4101488D01*
X-7040652Y-4101488D01*
X-6961277Y-4101488D02*
X-6945402Y-4116728D01*
X-6945402Y-4147208D01*
X-6881902Y-4086248D02*
X-6850152Y-4055768D01*
X-6850152Y-4147208D01*
X-7310652Y-5451348D02*
X-7183652Y-5451348D01*
X-7183652Y-5514848D02*
X-6675652Y-5514848D01*
X-6675652Y-5387848D01*
X-7183652Y-5387848D01*
X-7183652Y-5514848D01*
X-6675652Y-5451348D02*
X-6548652Y-5451348D01*
X-7056652Y-5347208D02*
X-7056652Y-5255768D01*
X-6977277Y-5255768D01*
X-6961402Y-5271008D01*
X-6961402Y-5286248D01*
X-6977277Y-5301488D01*
X-7056652Y-5301488D01*
X-6977277Y-5301488D02*
X-6961402Y-5316728D01*
X-6961402Y-5347208D01*
X-6913777Y-5271008D02*
X-6897902Y-5255768D01*
X-6850277Y-5255768D01*
X-6834402Y-5271008D01*
X-6834402Y-5286248D01*
X-6850277Y-5301488D01*
X-6897902Y-5301488D01*
X-6913777Y-5316728D01*
X-6913777Y-5347208D01*
X-6834402Y-5347208D01*
X-6548652Y-5751348D02*
X-6675652Y-5751348D01*
X-7183652Y-5814848D02*
X-6675652Y-5814848D01*
X-6675652Y-5687848D01*
X-7183652Y-5687848D01*
X-7183652Y-5814848D01*
X-7183652Y-5751348D02*
X-7310652Y-5751348D01*
X-7056652Y-5646928D02*
X-7056652Y-5555488D01*
X-6977277Y-5555488D01*
X-6961402Y-5570728D01*
X-6961402Y-5585968D01*
X-6977277Y-5601208D01*
X-7056652Y-5601208D01*
X-6977277Y-5601208D02*
X-6961402Y-5616448D01*
X-6961402Y-5646928D01*
X-6913777Y-5570728D02*
X-6897902Y-5555488D01*
X-6850277Y-5555488D01*
X-6834402Y-5570728D01*
X-6834402Y-5585968D01*
X-6850277Y-5601208D01*
X-6834402Y-5616448D01*
X-6834402Y-5631688D01*
X-6850277Y-5646928D01*
X-6897902Y-5646928D01*
X-6913777Y-5631688D01*
X-6882027Y-5601208D02*
X-6850277Y-5601208D01*
X-9098652Y-5801348D02*
X-9225652Y-5801348D01*
X-9733652Y-5864848D02*
X-9225652Y-5864848D01*
X-9225652Y-5737848D01*
X-9733652Y-5737848D01*
X-9733652Y-5864848D01*
X-9733652Y-5801348D02*
X-9860652Y-5801348D01*
X-9606652Y-5996928D02*
X-9606652Y-5905488D01*
X-9527277Y-5905488D01*
X-9511402Y-5920728D01*
X-9511402Y-5935968D01*
X-9527277Y-5951208D01*
X-9606652Y-5951208D01*
X-9527277Y-5951208D02*
X-9511402Y-5966448D01*
X-9511402Y-5996928D01*
X-9384402Y-5966448D02*
X-9479652Y-5966448D01*
X-9416152Y-5905488D01*
X-9416152Y-5996928D01*
X-9860652Y-5501348D02*
X-9733652Y-5501348D01*
X-9733652Y-5564848D02*
X-9225652Y-5564848D01*
X-9225652Y-5437848D01*
X-9733652Y-5437848D01*
X-9733652Y-5564848D01*
X-9225652Y-5501348D02*
X-9098652Y-5501348D01*
X-9606652Y-5397208D02*
X-9606652Y-5305768D01*
X-9527277Y-5305768D01*
X-9511402Y-5321008D01*
X-9511402Y-5336248D01*
X-9527277Y-5351488D01*
X-9606652Y-5351488D01*
X-9527277Y-5351488D02*
X-9511402Y-5366728D01*
X-9511402Y-5397208D01*
X-9384402Y-5305768D02*
X-9463777Y-5305768D01*
X-9463777Y-5336248D01*
X-9400277Y-5336248D01*
X-9384402Y-5351488D01*
X-9384402Y-5381968D01*
X-9400277Y-5397208D01*
X-9447902Y-5397208D01*
X-9463777Y-5381968D01*
X-5871652Y-4724348D02*
X-5871652Y-4597348D01*
X-5935152Y-4597348D02*
X-5808152Y-4597348D01*
X-5808152Y-4089348D01*
X-5935152Y-4089348D01*
X-5935152Y-4597348D01*
X-5871652Y-4089348D02*
X-5871652Y-3962348D01*
X-5975792Y-4470348D02*
X-6067232Y-4470348D01*
X-6067232Y-4390973D01*
X-6051992Y-4375098D01*
X-6036752Y-4375098D01*
X-6021512Y-4390973D01*
X-6021512Y-4470348D01*
X-6021512Y-4390973D02*
X-6006272Y-4375098D01*
X-5975792Y-4375098D01*
X-6051992Y-4248098D02*
X-6067232Y-4263973D01*
X-6067232Y-4311598D01*
X-6051992Y-4327473D01*
X-5991032Y-4327473D01*
X-5975792Y-4311598D01*
X-5975792Y-4263973D01*
X-5991032Y-4248098D01*
X-6006272Y-4248098D01*
X-6021512Y-4263973D01*
X-6021512Y-4327473D01*
X-5521652Y-4690348D02*
X-5521652Y-4563348D01*
X-5585152Y-4563348D02*
X-5458152Y-4563348D01*
X-5458152Y-4055348D01*
X-5585152Y-4055348D01*
X-5585152Y-4563348D01*
X-5521652Y-4055348D02*
X-5521652Y-3928348D01*
X-5625792Y-4436348D02*
X-5717232Y-4436348D01*
X-5717232Y-4356973D01*
X-5701992Y-4341098D01*
X-5686752Y-4341098D01*
X-5671512Y-4356973D01*
X-5671512Y-4436348D01*
X-5671512Y-4356973D02*
X-5656272Y-4341098D01*
X-5625792Y-4341098D01*
X-5717232Y-4293473D02*
X-5717232Y-4214098D01*
X-5701992Y-4214098D01*
X-5625792Y-4293473D01*
X-6548652Y-4551348D02*
X-6675652Y-4551348D01*
X-7183652Y-4614848D02*
X-6675652Y-4614848D01*
X-6675652Y-4487848D01*
X-7183652Y-4487848D01*
X-7183652Y-4614848D01*
X-7183652Y-4551348D02*
X-7310652Y-4551348D01*
X-7006652Y-4446928D02*
X-7006652Y-4355488D01*
X-6927277Y-4355488D01*
X-6911402Y-4370728D01*
X-6911402Y-4385968D01*
X-6927277Y-4401208D01*
X-7006652Y-4401208D01*
X-6927277Y-4401208D02*
X-6911402Y-4416448D01*
X-6911402Y-4446928D01*
X-6847902Y-4401208D02*
X-6863777Y-4385968D01*
X-6863777Y-4370728D01*
X-6847902Y-4355488D01*
X-6800277Y-4355488D01*
X-6784402Y-4370728D01*
X-6784402Y-4385968D01*
X-6800277Y-4401208D01*
X-6847902Y-4401208D01*
X-6863777Y-4416448D01*
X-6863777Y-4431688D01*
X-6847902Y-4446928D01*
X-6800277Y-4446928D01*
X-6784402Y-4431688D01*
X-6784402Y-4416448D01*
X-6800277Y-4401208D01*
X-6532652Y-3901348D02*
X-6659652Y-3901348D01*
X-7167652Y-3964848D02*
X-6659652Y-3964848D01*
X-6659652Y-3837848D01*
X-7167652Y-3837848D01*
X-7167652Y-3964848D01*
X-7167652Y-3901348D02*
X-7294652Y-3901348D01*
X-7040652Y-3746928D02*
X-7040652Y-3655488D01*
X-6961277Y-3655488D01*
X-6945402Y-3670728D01*
X-6945402Y-3685968D01*
X-6961277Y-3701208D01*
X-7040652Y-3701208D01*
X-6961277Y-3701208D02*
X-6945402Y-3716448D01*
X-6945402Y-3746928D01*
X-6818402Y-3685968D02*
X-6834277Y-3701208D01*
X-6881902Y-3701208D01*
X-6897777Y-3685968D01*
X-6897777Y-3670728D01*
X-6881902Y-3655488D01*
X-6834277Y-3655488D01*
X-6818402Y-3670728D01*
X-6818402Y-3731688D01*
X-6834277Y-3746928D01*
X-6881902Y-3746928D01*
X-5471652Y-5178348D02*
X-5445776Y-5183428D01*
X-5421804Y-5198033D01*
X-5400214Y-5221210D01*
X-5381482Y-5252008D01*
X-5366083Y-5289473D01*
X-5354494Y-5332653D01*
X-5347192Y-5380596D01*
X-5344652Y-5432348D01*
X-5471652Y-5686348D02*
X-5445776Y-5681268D01*
X-5421804Y-5666663D01*
X-5400214Y-5643486D01*
X-5381482Y-5612688D01*
X-5366083Y-5575223D01*
X-5354494Y-5532043D01*
X-5347192Y-5484100D01*
X-5344652Y-5432348D01*
X-5471652Y-5178348D02*
X-5497528Y-5183428D01*
X-5521500Y-5198033D01*
X-5543090Y-5221210D01*
X-5561822Y-5252008D01*
X-5577221Y-5289473D01*
X-5588810Y-5332653D01*
X-5596112Y-5380596D01*
X-5598652Y-5432348D01*
X-5471652Y-5686348D02*
X-5497528Y-5681268D01*
X-5521500Y-5666663D01*
X-5543090Y-5643486D01*
X-5561822Y-5612688D01*
X-5577221Y-5575223D01*
X-5588810Y-5532043D01*
X-5596112Y-5484100D01*
X-5598652Y-5432348D01*
X-5227812Y-5464098D02*
X-5212572Y-5479973D01*
X-5212572Y-5527598D01*
X-5243052Y-5559348D01*
X-5273532Y-5559348D01*
X-5304012Y-5527598D01*
X-5304012Y-5479973D01*
X-5288772Y-5464098D01*
X-5273532Y-5400598D02*
X-5304012Y-5368848D01*
X-5212572Y-5368848D01*
X-4894652Y-5178348D02*
X-4868776Y-5183428D01*
X-4844804Y-5198033D01*
X-4823214Y-5221210D01*
X-4804482Y-5252008D01*
X-4789083Y-5289473D01*
X-4777494Y-5332653D01*
X-4770192Y-5380596D01*
X-4767652Y-5432348D01*
X-4894652Y-5686348D02*
X-4868776Y-5681268D01*
X-4844804Y-5666663D01*
X-4823214Y-5643486D01*
X-4804482Y-5612688D01*
X-4789083Y-5575223D01*
X-4777494Y-5532043D01*
X-4770192Y-5484100D01*
X-4767652Y-5432348D01*
X-4894652Y-5178348D02*
X-4920528Y-5183428D01*
X-4944500Y-5198033D01*
X-4966090Y-5221210D01*
X-4984822Y-5252008D01*
X-5000221Y-5289473D01*
X-5011810Y-5332653D01*
X-5019112Y-5380596D01*
X-5021652Y-5432348D01*
X-4894652Y-5686348D02*
X-4920528Y-5681268D01*
X-4944500Y-5666663D01*
X-4966090Y-5643486D01*
X-4984822Y-5612688D01*
X-5000221Y-5575223D01*
X-5011810Y-5532043D01*
X-5019112Y-5484100D01*
X-5021652Y-5432348D01*
X-4650812Y-5464098D02*
X-4635572Y-5479973D01*
X-4635572Y-5527598D01*
X-4666052Y-5559348D01*
X-4696532Y-5559348D01*
X-4727012Y-5527598D01*
X-4727012Y-5479973D01*
X-4711772Y-5464098D01*
X-4711772Y-5416473D02*
X-4727012Y-5400598D01*
X-4727012Y-5352973D01*
X-4711772Y-5337098D01*
X-4696532Y-5337098D01*
X-4681292Y-5352973D01*
X-4681292Y-5400598D01*
X-4666052Y-5416473D01*
X-4635572Y-5416473D01*
X-4635572Y-5337098D01*
X-5771652Y-6447348D02*
X-5745776Y-6452428D01*
X-5721804Y-6467033D01*
X-5700214Y-6490210D01*
X-5681482Y-6521008D01*
X-5666083Y-6558473D01*
X-5654494Y-6601653D01*
X-5647192Y-6649596D01*
X-5644652Y-6701348D01*
X-5771652Y-6955348D02*
X-5745776Y-6950268D01*
X-5721804Y-6935663D01*
X-5700214Y-6912486D01*
X-5681482Y-6881688D01*
X-5666083Y-6844223D01*
X-5654494Y-6801043D01*
X-5647192Y-6753100D01*
X-5644652Y-6701348D01*
X-5771652Y-6447348D02*
X-5797528Y-6452428D01*
X-5821500Y-6467033D01*
X-5843090Y-6490210D01*
X-5861822Y-6521008D01*
X-5877221Y-6558473D01*
X-5888810Y-6601653D01*
X-5896112Y-6649596D01*
X-5898652Y-6701348D01*
X-5771652Y-6955348D02*
X-5797528Y-6950268D01*
X-5821500Y-6935663D01*
X-5843090Y-6912486D01*
X-5861822Y-6881688D01*
X-5877221Y-6844223D01*
X-5888810Y-6801043D01*
X-5896112Y-6753100D01*
X-5898652Y-6701348D01*
X-5527812Y-6733098D02*
X-5512572Y-6748973D01*
X-5512572Y-6796598D01*
X-5543052Y-6828348D01*
X-5573532Y-6828348D01*
X-5604012Y-6796598D01*
X-5604012Y-6748973D01*
X-5588772Y-6733098D01*
X-5588772Y-6685473D02*
X-5604012Y-6669598D01*
X-5604012Y-6621973D01*
X-5588772Y-6606098D01*
X-5573532Y-6606098D01*
X-5558292Y-6621973D01*
X-5543052Y-6606098D01*
X-5527812Y-6606098D01*
X-5512572Y-6621973D01*
X-5512572Y-6669598D01*
X-5527812Y-6685473D01*
X-5558292Y-6653723D02*
X-5558292Y-6621973D01*
X-5171652Y-6447348D02*
X-5145776Y-6452428D01*
X-5121804Y-6467033D01*
X-5100214Y-6490210D01*
X-5081482Y-6521008D01*
X-5066083Y-6558473D01*
X-5054494Y-6601653D01*
X-5047192Y-6649596D01*
X-5044652Y-6701348D01*
X-5171652Y-6955348D02*
X-5145776Y-6950268D01*
X-5121804Y-6935663D01*
X-5100214Y-6912486D01*
X-5081482Y-6881688D01*
X-5066083Y-6844223D01*
X-5054494Y-6801043D01*
X-5047192Y-6753100D01*
X-5044652Y-6701348D01*
X-5171652Y-6447348D02*
X-5197528Y-6452428D01*
X-5221500Y-6467033D01*
X-5243090Y-6490210D01*
X-5261822Y-6521008D01*
X-5277221Y-6558473D01*
X-5288810Y-6601653D01*
X-5296112Y-6649596D01*
X-5298652Y-6701348D01*
X-5171652Y-6955348D02*
X-5197528Y-6950268D01*
X-5221500Y-6935663D01*
X-5243090Y-6912486D01*
X-5261822Y-6881688D01*
X-5277221Y-6844223D01*
X-5288810Y-6801043D01*
X-5296112Y-6753100D01*
X-5298652Y-6701348D01*
X-4927812Y-6733098D02*
X-4912572Y-6748973D01*
X-4912572Y-6796598D01*
X-4943052Y-6828348D01*
X-4973532Y-6828348D01*
X-5004012Y-6796598D01*
X-5004012Y-6748973D01*
X-4988772Y-6733098D01*
X-4943052Y-6606098D02*
X-4943052Y-6701348D01*
X-5004012Y-6637848D01*
X-4912572Y-6637848D01*
X-9722732Y-5233428D02*
X-9204572Y-5233428D01*
X-9204572Y-4966728D01*
X-9722732Y-4966728D01*
X-9722732Y-5233428D01*
X-9641452Y-4969268D02*
X-9641452Y-5230888D01*
X-9793852Y-5101348D02*
X-9722732Y-5101348D01*
X-9204572Y-5101348D02*
X-9133452Y-5101348D01*
X-9590652Y-4926088D02*
X-9590652Y-4834648D01*
X-9527152Y-4834648D01*
X-9495402Y-4865128D01*
X-9495402Y-4895608D01*
X-9527152Y-4926088D01*
X-9590652Y-4926088D01*
X-9431902Y-4865128D02*
X-9400152Y-4834648D01*
X-9400152Y-4926088D01*
X-8606272Y-5802428D02*
X-8339572Y-5802428D01*
X-8339572Y-5284268D01*
X-8606272Y-5284268D01*
X-8606272Y-5802428D01*
X-8603732Y-5721148D02*
X-8342112Y-5721148D01*
X-8471652Y-5873548D02*
X-8471652Y-5802428D01*
X-8471652Y-5284268D02*
X-8471652Y-5213148D01*
X-8646912Y-5670348D02*
X-8738352Y-5670348D01*
X-8738352Y-5606848D01*
X-8707872Y-5575098D01*
X-8677392Y-5575098D01*
X-8646912Y-5606848D01*
X-8646912Y-5670348D01*
X-8723112Y-5527473D02*
X-8738352Y-5511598D01*
X-8738352Y-5463973D01*
X-8723112Y-5448098D01*
X-8707872Y-5448098D01*
X-8692632Y-5463973D01*
X-8692632Y-5511598D01*
X-8677392Y-5527473D01*
X-8646912Y-5527473D01*
X-8646912Y-5448098D01*
X-5852652Y-2655348D02*
X-5598652Y-2655348D01*
X-5598652Y-2401348D01*
X-5852652Y-2401348D01*
X-5852652Y-2655348D01*
X-5497052Y-2655348D02*
X-5481812Y-2655348D01*
X-5466572Y-2639473D01*
X-5466572Y-2575973D01*
X-5481812Y-2560098D01*
X-5558012Y-2560098D01*
X-5558012Y-2433098D02*
X-5558012Y-2512473D01*
X-5527532Y-2512473D01*
X-5527532Y-2448973D01*
X-5512292Y-2433098D01*
X-5481812Y-2433098D01*
X-5466572Y-2448973D01*
X-5466572Y-2496598D01*
X-5481812Y-2512473D01*
X-6002652Y-2005348D02*
X-5494652Y-2005348D01*
X-5494652Y-1751348D01*
X-6002652Y-1751348D01*
X-6002652Y-2005348D01*
X-5875652Y-2106948D02*
X-5875652Y-2122188D01*
X-5859777Y-2137428D01*
X-5796277Y-2137428D01*
X-5780402Y-2122188D01*
X-5780402Y-2045988D01*
X-5653402Y-2106948D02*
X-5748652Y-2106948D01*
X-5685152Y-2045988D01*
X-5685152Y-2137428D01*
X-5489152Y-2721668D02*
X-5520902Y-2721668D01*
X-5520902Y-2686108D01*
X-5457402Y-2686108D01*
X-5425652Y-2721668D01*
X-5425652Y-2757228D01*
X-5457402Y-2792788D01*
X-5505027Y-2792788D01*
X-5520902Y-2775008D01*
X-5552652Y-2686108D02*
X-5552652Y-2792788D01*
X-5616152Y-2792788D01*
X-5647902Y-2757228D01*
X-5647902Y-2721668D01*
X-5616152Y-2686108D01*
X-5552652Y-2686108D01*
X-5806652Y-2686108D02*
X-5806652Y-2792788D01*
X-5886027Y-2792788D01*
X-5901902Y-2775008D01*
X-5901902Y-2757228D01*
X-5886027Y-2739448D01*
X-5806652Y-2739448D01*
X-5933652Y-2792788D02*
X-5933652Y-2686108D01*
X-5981277Y-2739448D01*
X-6028902Y-2686108D01*
X-6028902Y-2792788D01*
X-6060652Y-2686108D02*
X-6060652Y-2792788D01*
X-6108277Y-2739448D01*
X-6155902Y-2792788D01*
X-6155902Y-2686108D01*
X-5425652Y-1507228D02*
X-5457402Y-1542788D01*
X-5489152Y-1542788D01*
X-5520902Y-1507228D01*
X-5520902Y-1471668D01*
X-5489152Y-1436108D01*
X-5457402Y-1436108D01*
X-5425652Y-1471668D01*
X-5425652Y-1507228D01*
X-5552652Y-1542788D02*
X-5552652Y-1453888D01*
X-5568527Y-1436108D01*
X-5632027Y-1436108D01*
X-5647902Y-1453888D01*
X-5647902Y-1542788D01*
X-5679652Y-1542788D02*
X-5774902Y-1542788D01*
X-5727277Y-1542788D02*
X-5727277Y-1436108D01*
X-5489152Y-1621668D02*
X-5520902Y-1621668D01*
X-5520902Y-1586108D01*
X-5457402Y-1586108D01*
X-5425652Y-1621668D01*
X-5425652Y-1657228D01*
X-5457402Y-1692788D01*
X-5505027Y-1692788D01*
X-5520902Y-1675008D01*
X-5552652Y-1586108D02*
X-5552652Y-1692788D01*
X-5616152Y-1692788D01*
X-5647902Y-1657228D01*
X-5647902Y-1621668D01*
X-5616152Y-1586108D01*
X-5552652Y-1586108D01*
X-5806652Y-1586108D02*
X-5806652Y-1692788D01*
X-5886027Y-1692788D01*
X-5901902Y-1675008D01*
X-5901902Y-1657228D01*
X-5886027Y-1639448D01*
X-5806652Y-1639448D01*
X-5933652Y-1692788D02*
X-5933652Y-1586108D01*
X-5981277Y-1639448D01*
X-6028902Y-1586108D01*
X-6028902Y-1692788D01*
X-6060652Y-1586108D02*
X-6060652Y-1692788D01*
X-6108277Y-1639448D01*
X-6155902Y-1692788D01*
X-6155902Y-1586108D01*
X-6175652Y-2828348D02*
X-5325652Y-2828348D01*
X-5325652Y-1428348D01*
X-6175652Y-1428348D01*
X-6175652Y-2828348D01*
X-6532652Y-5101348D02*
X-6659652Y-5101348D01*
X-7167652Y-5164848D02*
X-6659652Y-5164848D01*
X-6659652Y-5037848D01*
X-7167652Y-5037848D01*
X-7167652Y-5164848D01*
X-7167652Y-5101348D02*
X-7294652Y-5101348D01*
X-7104152Y-4946928D02*
X-7104152Y-4855488D01*
X-7024777Y-4855488D01*
X-7008902Y-4870728D01*
X-7008902Y-4885968D01*
X-7024777Y-4901208D01*
X-7104152Y-4901208D01*
X-7024777Y-4901208D02*
X-7008902Y-4916448D01*
X-7008902Y-4946928D01*
X-6945402Y-4885968D02*
X-6913652Y-4855488D01*
X-6913652Y-4946928D01*
X-6850152Y-4931688D02*
X-6850152Y-4870728D01*
X-6834277Y-4855488D01*
X-6770777Y-4855488D01*
X-6754902Y-4870728D01*
X-6754902Y-4931688D01*
X-6770777Y-4946928D01*
X-6834277Y-4946928D01*
X-6850152Y-4931688D01*
X-6850152Y-4946928D02*
X-6754902Y-4855488D01*
X-5485152Y+328332D02*
X-5516902Y+328332D01*
X-5516902Y+363892D01*
X-5453402Y+363892D01*
X-5421652Y+328332D01*
X-5421652Y+292772D01*
X-5453402Y+257212D01*
X-5501027Y+257212D01*
X-5516902Y+274992D01*
X-5548652Y+363892D02*
X-5548652Y+257212D01*
X-5612152Y+257212D01*
X-5643902Y+292772D01*
X-5643902Y+328332D01*
X-5612152Y+363892D01*
X-5548652Y+363892D01*
X-5802652Y+363892D02*
X-5802652Y+257212D01*
X-5882027Y+257212D01*
X-5897902Y+274992D01*
X-5897902Y+292772D01*
X-5882027Y+310552D01*
X-5802652Y+310552D01*
X-5929652Y+257212D02*
X-5929652Y+363892D01*
X-5977277Y+310552D01*
X-6024902Y+363892D01*
X-6024902Y+257212D01*
X-6056652Y+363892D02*
X-6056652Y+257212D01*
X-6104277Y+310552D01*
X-6151902Y+257212D01*
X-6151902Y+363892D01*
X-5421652Y+1492772D02*
X-5453402Y+1457212D01*
X-5485152Y+1457212D01*
X-5516902Y+1492772D01*
X-5516902Y+1528332D01*
X-5485152Y+1563892D01*
X-5453402Y+1563892D01*
X-5421652Y+1528332D01*
X-5421652Y+1492772D01*
X-5548652Y+1457212D02*
X-5548652Y+1546112D01*
X-5564527Y+1563892D01*
X-5628027Y+1563892D01*
X-5643902Y+1546112D01*
X-5643902Y+1457212D01*
X-5675652Y+1457212D02*
X-5770902Y+1457212D01*
X-5723277Y+1457212D02*
X-5723277Y+1563892D01*
X-5485152Y+1378332D02*
X-5516902Y+1378332D01*
X-5516902Y+1413892D01*
X-5453402Y+1413892D01*
X-5421652Y+1378332D01*
X-5421652Y+1342772D01*
X-5453402Y+1307212D01*
X-5501027Y+1307212D01*
X-5516902Y+1324992D01*
X-5548652Y+1413892D02*
X-5548652Y+1307212D01*
X-5612152Y+1307212D01*
X-5643902Y+1342772D01*
X-5643902Y+1378332D01*
X-5612152Y+1413892D01*
X-5548652Y+1413892D01*
X-5802652Y+1413892D02*
X-5802652Y+1307212D01*
X-5882027Y+1307212D01*
X-5897902Y+1324992D01*
X-5897902Y+1342772D01*
X-5882027Y+1360552D01*
X-5802652Y+1360552D01*
X-5929652Y+1307212D02*
X-5929652Y+1413892D01*
X-5977277Y+1360552D01*
X-6024902Y+1413892D01*
X-6024902Y+1307212D01*
X-6056652Y+1413892D02*
X-6056652Y+1307212D01*
X-6104277Y+1360552D01*
X-6151902Y+1307212D01*
X-6151902Y+1413892D01*
X-6171652Y+171652D02*
X-5321652Y+171652D01*
X-5321652Y+1571652D01*
X-6171652Y+1571652D01*
X-6171652Y+171652D01*
X-5798652Y+394652D02*
X-5544652Y+394652D01*
X-5544652Y+648652D01*
X-5798652Y+648652D01*
X-5798652Y+394652D01*
X-5443052Y+394652D02*
X-5427812Y+394652D01*
X-5412572Y+410527D01*
X-5412572Y+474027D01*
X-5427812Y+489902D01*
X-5504012Y+489902D01*
X-5458292Y+553402D02*
X-5473532Y+537527D01*
X-5488772Y+537527D01*
X-5504012Y+553402D01*
X-5504012Y+601027D01*
X-5488772Y+616902D01*
X-5473532Y+616902D01*
X-5458292Y+601027D01*
X-5458292Y+553402D01*
X-5443052Y+537527D01*
X-5427812Y+537527D01*
X-5412572Y+553402D01*
X-5412572Y+601027D01*
X-5427812Y+616902D01*
X-5443052Y+616902D01*
X-5458292Y+601027D01*
X-6002652Y+994652D02*
X-5494652Y+994652D01*
X-5494652Y+1248652D01*
X-6002652Y+1248652D01*
X-6002652Y+994652D01*
X-5875652Y+893052D02*
X-5875652Y+877812D01*
X-5859777Y+862572D01*
X-5796277Y+862572D01*
X-5780402Y+877812D01*
X-5780402Y+954012D01*
X-5732777Y+954012D02*
X-5653402Y+954012D01*
X-5653402Y+938772D01*
X-5732777Y+862572D01*
X-6068972Y-1964848D02*
X-6068972Y-1933098D01*
X-6033412Y-1933098D01*
X-6033412Y-1996598D01*
X-6068972Y-2028348D01*
X-6104532Y-2028348D01*
X-6140092Y-1996598D01*
X-6140092Y-1948973D01*
X-6122312Y-1933098D01*
X-6064972Y+1035152D02*
X-6064972Y+1066902D01*
X-6029412Y+1066902D01*
X-6029412Y+1003402D01*
X-6064972Y+971652D01*
X-6100532Y+971652D01*
X-6136092Y+1003402D01*
X-6136092Y+1051027D01*
X-6118312Y+1066902D01*
X-5351192Y-2028348D02*
X-5333412Y-2012473D01*
X-5333412Y-1948973D01*
X-5351192Y-1933098D01*
X-5368972Y-1933098D01*
X-5386752Y-1948973D01*
X-5386752Y-2012473D01*
X-5404532Y-2028348D01*
X-5422312Y-2028348D01*
X-5440092Y-2012473D01*
X-5440092Y-1948973D01*
X-5422312Y-1933098D01*
X-5347192Y+971652D02*
X-5329412Y+987527D01*
X-5329412Y+1051027D01*
X-5347192Y+1066902D01*
X-5364972Y+1066902D01*
X-5382752Y+1051027D01*
X-5382752Y+987527D01*
X-5400532Y+971652D01*
X-5418312Y+971652D01*
X-5436092Y+987527D01*
X-5436092Y+1051027D01*
X-5418312Y+1066902D01*
X-4438652Y-6899348D02*
X-4184652Y-6899348D01*
X-4184652Y-6137348D01*
X-4438652Y-6137348D01*
X-4438652Y-6899348D01*
X-4184652Y-6137348D02*
X-4057652Y-6137348D01*
X-4057652Y-6899348D01*
X-4184652Y-6899348D01*
X-4184652Y-6137348D02*
X-4057652Y-6264348D01*
X-4184652Y-6264348D02*
X-4057652Y-6391348D01*
X-4184652Y-6391348D02*
X-4057652Y-6518348D01*
X-4184652Y-6518348D02*
X-4057652Y-6645348D01*
X-4184652Y-6645348D02*
X-4057652Y-6772348D01*
X-4184652Y-6772348D02*
X-4057652Y-6899348D01*
X-4017012Y-6645348D02*
X-3940812Y-6645348D01*
X-3925572Y-6629473D01*
X-3925572Y-6565973D01*
X-3940812Y-6550098D01*
X-4017012Y-6550098D01*
X-4001772Y-6502473D02*
X-4017012Y-6486598D01*
X-4017012Y-6438973D01*
X-4001772Y-6423098D01*
X-3986532Y-6423098D01*
X-3971292Y-6438973D01*
X-3971292Y-6486598D01*
X-3956052Y-6502473D01*
X-3925572Y-6502473D01*
X-3925572Y-6423098D01*
X-4444652Y-4855348D02*
X-4190652Y-4855348D01*
X-4190652Y-4093348D01*
X-4444652Y-4093348D01*
X-4444652Y-4855348D01*
X-4190652Y-4093348D02*
X-4063652Y-4093348D01*
X-4063652Y-4855348D01*
X-4190652Y-4855348D01*
X-4190652Y-4093348D02*
X-4063652Y-4220348D01*
X-4190652Y-4220348D02*
X-4063652Y-4347348D01*
X-4190652Y-4347348D02*
X-4063652Y-4474348D01*
X-4190652Y-4474348D02*
X-4063652Y-4601348D01*
X-4190652Y-4601348D02*
X-4063652Y-4728348D01*
X-4190652Y-4728348D02*
X-4063652Y-4855348D01*
X-4023012Y-4601348D02*
X-3946812Y-4601348D01*
X-3931572Y-4585473D01*
X-3931572Y-4521973D01*
X-3946812Y-4506098D01*
X-4023012Y-4506098D01*
X-3992532Y-4442598D02*
X-4023012Y-4410848D01*
X-3931572Y-4410848D01*
X-4534652Y-7114348D02*
X-3434652Y-7114348D01*
X-3434652Y-5914348D01*
X-4534652Y-5914348D01*
X-4534652Y-7114348D01*
X-4540652Y-5078348D02*
X-3440652Y-5078348D01*
X-3440652Y-3878348D01*
X-4540652Y-3878348D01*
X-4540652Y-5078348D01*
X-1998652Y-863348D02*
X-1744652Y-863348D01*
X-1744652Y-101348D01*
X-1998652Y-101348D01*
X-1998652Y-863348D01*
X-1744652Y-101348D02*
X-1617652Y-101348D01*
X-1617652Y-863348D01*
X-1744652Y-863348D01*
X-1744652Y-101348D02*
X-1617652Y-228348D01*
X-1744652Y-228348D02*
X-1617652Y-355348D01*
X-1744652Y-355348D02*
X-1617652Y-482348D01*
X-1744652Y-482348D02*
X-1617652Y-609348D01*
X-1744652Y-609348D02*
X-1617652Y-736348D01*
X-1744652Y-736348D02*
X-1617652Y-863348D01*
X-1542087Y-63248D02*
X-1510337Y-32768D01*
X-1478587Y-32768D01*
X-1446837Y-63248D01*
X-1446837Y-93728D01*
X-1478587Y-124208D01*
X-1510337Y-124208D01*
X-1542087Y-93728D01*
X-1542087Y-63248D01*
X-1478587Y-93728D02*
X-1446837Y-124208D01*
X-1383337Y-63248D02*
X-1351587Y-32768D01*
X-1351587Y-124208D01*
X-1998652Y+1190652D02*
X-1744652Y+1190652D01*
X-1744652Y+1952652D01*
X-1998652Y+1952652D01*
X-1998652Y+1190652D01*
X-1744652Y+1952652D02*
X-1617652Y+1952652D01*
X-1617652Y+1190652D01*
X-1744652Y+1190652D01*
X-1744652Y+1952652D02*
X-1617652Y+1825652D01*
X-1744652Y+1825652D02*
X-1617652Y+1698652D01*
X-1744652Y+1698652D02*
X-1617652Y+1571652D01*
X-1744652Y+1571652D02*
X-1617652Y+1444652D01*
X-1744652Y+1444652D02*
X-1617652Y+1317652D01*
X-1744652Y+1317652D02*
X-1617652Y+1190652D01*
X-1542087Y+1990752D02*
X-1510337Y+2021232D01*
X-1478587Y+2021232D01*
X-1446837Y+1990752D01*
X-1446837Y+1960272D01*
X-1478587Y+1929792D01*
X-1510337Y+1929792D01*
X-1542087Y+1960272D01*
X-1542087Y+1990752D01*
X-1478587Y+1960272D02*
X-1446837Y+1929792D01*
X-1399212Y+2005992D02*
X-1383337Y+2021232D01*
X-1335712Y+2021232D01*
X-1319837Y+2005992D01*
X-1319837Y+1990752D01*
X-1335712Y+1975512D01*
X-1383337Y+1975512D01*
X-1399212Y+1960272D01*
X-1399212Y+1929792D01*
X-1319837Y+1929792D01*
X-2035552Y-5102928D02*
X-1273552Y-5102928D01*
X-1273552Y-4213928D01*
X-2035552Y-4213928D01*
X-2035552Y-5102928D01*
X-1400552Y-4213928D02*
X-1400552Y-5102928D01*
X-1171952Y-4785428D02*
X-1156712Y-4785428D01*
X-1141472Y-4769553D01*
X-1141472Y-4706053D01*
X-1156712Y-4690178D01*
X-1232912Y-4690178D01*
X-1217672Y-4642553D02*
X-1232912Y-4626678D01*
X-1232912Y-4579053D01*
X-1217672Y-4563178D01*
X-1202432Y-4563178D01*
X-1187192Y-4579053D01*
X-1187192Y-4626678D01*
X-1171952Y-4642553D01*
X-1141472Y-4642553D01*
X-1141472Y-4563178D01*
X-1958672Y-7079808D02*
X-1196672Y-7079808D01*
X-1196672Y-6190808D01*
X-1958672Y-6190808D01*
X-1958672Y-7079808D01*
X-1323672Y-6190808D02*
X-1323672Y-7079808D01*
X-1095072Y-6762308D02*
X-1079832Y-6762308D01*
X-1064592Y-6746433D01*
X-1064592Y-6682933D01*
X-1079832Y-6667058D01*
X-1156032Y-6667058D01*
X-1140792Y-6540058D02*
X-1156032Y-6555933D01*
X-1156032Y-6603558D01*
X-1140792Y-6619433D01*
X-1079832Y-6619433D01*
X-1064592Y-6603558D01*
X-1064592Y-6555933D01*
X-1079832Y-6540058D01*
X-1095072Y-6540058D01*
X-1110312Y-6555933D01*
X-1110312Y-6619433D01*
X-2008672Y-2779808D02*
X-1246672Y-2779808D01*
X-1246672Y-1890808D01*
X-2008672Y-1890808D01*
X-2008672Y-2779808D01*
X-1373672Y-1890808D02*
X-1373672Y-2779808D01*
X-1145072Y-2525808D02*
X-1129832Y-2525808D01*
X-1114592Y-2509933D01*
X-1114592Y-2446433D01*
X-1129832Y-2430558D01*
X-1206032Y-2430558D01*
X-1175552Y-2367058D02*
X-1206032Y-2335308D01*
X-1114592Y-2335308D01*
X-1160312Y-2240058D02*
X-1175552Y-2255933D01*
X-1190792Y-2255933D01*
X-1206032Y-2240058D01*
X-1206032Y-2192433D01*
X-1190792Y-2176558D01*
X-1175552Y-2176558D01*
X-1160312Y-2192433D01*
X-1160312Y-2240058D01*
X-1145072Y-2255933D01*
X-1129832Y-2255933D01*
X-1114592Y-2240058D01*
X-1114592Y-2192433D01*
X-1129832Y-2176558D01*
X-1145072Y-2176558D01*
X-1160312Y-2192433D01*
X-2172992Y-4251468D02*
X-2190772Y-4267343D01*
X-2190772Y-4330843D01*
X-2172992Y-4346718D01*
X-2155212Y-4346718D01*
X-2137432Y-4330843D01*
X-2137432Y-4267343D01*
X-2119652Y-4251468D01*
X-2101872Y-4251468D01*
X-2084092Y-4267343D01*
X-2084092Y-4330843D01*
X-2101872Y-4346718D01*
X-2119652Y-4378468D02*
X-2084092Y-4410218D01*
X-2084092Y-4441968D01*
X-2119652Y-4473718D01*
X-2155212Y-4473718D01*
X-2190772Y-4441968D01*
X-2190772Y-4410218D01*
X-2155212Y-4378468D01*
X-2119652Y-4378468D01*
X-2084092Y-4505468D02*
X-2190772Y-4505468D01*
X-2190772Y-4600718D01*
X-2190772Y-4632468D02*
X-2119652Y-4632468D01*
X-2084092Y-4664218D01*
X-2084092Y-4695968D01*
X-2119652Y-4727718D01*
X-2190772Y-4727718D01*
X-2155212Y-4632468D02*
X-2155212Y-4727718D01*
X-2190772Y-4759468D02*
X-2084092Y-4759468D01*
X-2084092Y-4838843D01*
X-2101872Y-4854718D01*
X-2119652Y-4854718D01*
X-2137432Y-4838843D01*
X-2137432Y-4759468D01*
X-2137432Y-4838843D02*
X-2155212Y-4854718D01*
X-2190772Y-4854718D01*
X-2190772Y-5013468D02*
X-2084092Y-5013468D01*
X-2084092Y-5092843D01*
X-2101872Y-5108718D01*
X-2119652Y-5108718D01*
X-2137432Y-5092843D01*
X-2137432Y-5013468D01*
X-1509632Y-4901468D02*
X-1509632Y-4806218D01*
X-1545192Y-4853843D02*
X-1474072Y-4853843D01*
X-1509632Y-4504593D02*
X-1509632Y-4425218D01*
X-2224955Y-1928800D02*
X-2118275Y-1928800D01*
X-2118275Y-2008175D01*
X-2136055Y-2024050D01*
X-2153835Y-2024050D01*
X-2171615Y-2008175D01*
X-2189395Y-2024050D01*
X-2207175Y-2024050D01*
X-2224955Y-2008175D01*
X-2224955Y-1928800D01*
X-2171615Y-1928800D02*
X-2171615Y-2008175D01*
X-2224955Y-2055800D02*
X-2153835Y-2055800D01*
X-2118275Y-2087550D01*
X-2118275Y-2119300D01*
X-2153835Y-2151050D01*
X-2224955Y-2151050D01*
X-2189395Y-2055800D02*
X-2189395Y-2151050D01*
X-2118275Y-2182800D02*
X-2118275Y-2278050D01*
X-2118275Y-2230425D02*
X-2224955Y-2230425D01*
X-2118275Y-2309800D02*
X-2118275Y-2405050D01*
X-2118275Y-2357425D02*
X-2224955Y-2357425D01*
X-2224955Y-2532050D02*
X-2224955Y-2436800D01*
X-2118275Y-2436800D01*
X-2118275Y-2532050D01*
X-2171615Y-2436800D02*
X-2171615Y-2500300D01*
X-2224955Y-2563800D02*
X-2118275Y-2563800D01*
X-2118275Y-2643175D01*
X-2136055Y-2659050D01*
X-2153835Y-2659050D01*
X-2171615Y-2643175D01*
X-2171615Y-2563800D01*
X-2171615Y-2643175D02*
X-2189395Y-2659050D01*
X-2224955Y-2659050D01*
X-2118275Y-2786050D02*
X-2224955Y-2690800D01*
X-2118275Y-2690800D02*
X-2171615Y-2738425D01*
X-1940272Y-2582108D02*
X-1940272Y-2486858D01*
X-1975832Y-2534483D02*
X-1904712Y-2534483D01*
X-1940272Y-2185233D02*
X-1940272Y-2105858D01*
X-1410552Y-6382108D02*
X-1410552Y-6477358D01*
X-1374992Y-6429733D02*
X-1446112Y-6429733D01*
X-1410552Y-6778983D02*
X-1410552Y-6858358D01*
X-2007212Y-6232108D02*
X-2113892Y-6232108D01*
X-2113892Y-6327358D01*
X-2042772Y-6359108D02*
X-2007212Y-6390858D01*
X-2007212Y-6422608D01*
X-2042772Y-6454358D01*
X-2078332Y-6454358D01*
X-2113892Y-6422608D01*
X-2113892Y-6390858D01*
X-2078332Y-6359108D01*
X-2042772Y-6359108D01*
X-2113892Y-6486108D02*
X-2042772Y-6486108D01*
X-2007212Y-6517858D01*
X-2007212Y-6549608D01*
X-2042772Y-6581358D01*
X-2113892Y-6581358D01*
X-2078332Y-6486108D02*
X-2078332Y-6581358D01*
X-2113892Y-6613108D02*
X-2007212Y-6613108D01*
X-2007212Y-6676608D01*
X-2042772Y-6708358D01*
X-2078332Y-6708358D01*
X-2113892Y-6676608D01*
X-2113892Y-6613108D01*
X-2042772Y-6867108D02*
X-2007212Y-6898858D01*
X-2007212Y-6930608D01*
X-2042772Y-6962358D01*
X-2078332Y-6962358D01*
X-2113892Y-6930608D01*
X-2113892Y-6898858D01*
X-2078332Y-6867108D01*
X-2042772Y-6867108D01*
X-2007212Y-6994108D02*
X-2096112Y-6994108D01*
X-2113892Y-7009983D01*
X-2113892Y-7073483D01*
X-2096112Y-7089358D01*
X-2007212Y-7089358D01*
X-2007212Y-7121108D02*
X-2007212Y-7216358D01*
X-2007212Y-7168733D02*
X-2113892Y-7168733D01*
D20*
X-7274652Y-3110348D02*
X-7274687Y-3109517D01*
X-7274968Y-3107853D01*
X-7275558Y-3106189D01*
X-7276522Y-3104525D01*
X-7277997Y-3102884D01*
X-7279661Y-3101683D01*
X-7281325Y-3100918D01*
X-7282989Y-3100487D01*
X-7284652Y-3100348D01*
X-7294652Y-3110348D02*
X-7294617Y-3109517D01*
X-7294336Y-3107853D01*
X-7293746Y-3106189D01*
X-7292782Y-3104525D01*
X-7291307Y-3102884D01*
X-7289643Y-3101683D01*
X-7287979Y-3100918D01*
X-7286315Y-3100487D01*
X-7284652Y-3100348D01*
X-7294652Y-3110348D02*
X-7294617Y-3111179D01*
X-7294336Y-3112843D01*
X-7293746Y-3114507D01*
X-7292782Y-3116171D01*
X-7291307Y-3117812D01*
X-7289643Y-3119013D01*
X-7287979Y-3119778D01*
X-7286315Y-3120209D01*
X-7284652Y-3120348D01*
X-7274652Y-3110348D02*
X-7274687Y-3111179D01*
X-7274968Y-3112843D01*
X-7275558Y-3114507D01*
X-7276522Y-3116171D01*
X-7277997Y-3117812D01*
X-7279661Y-3119013D01*
X-7281325Y-3119778D01*
X-7282989Y-3120209D01*
X-7284652Y-3120348D01*
D21*
X-7346652Y-3223348D02*
X-7346652Y+1596652D01*
X-10136652Y+1596652D02*
X-10136652Y-3223348D01*
X-9641652Y-3223348D01*
X-7841652Y-3223348D02*
X-7346652Y-3223348D01*
X-7841652Y-3223348D02*
X-7841652Y-3843348D01*
X-9641652Y-3843348D01*
X-9641652Y-3223348D01*
X-7346652Y+1596652D02*
X-8334652Y+1596652D01*
X-8334652Y+1686652D01*
X-9147652Y+1686652D01*
X-9147652Y+1596652D01*
X-10136652Y+1596652D01*
D71*
X-8873152Y-3971618D02*
X-8968402Y-3971618D01*
X-8968402Y-3880178D01*
X-8873152Y-3880178D01*
X-8968402Y-3925898D02*
X-8904902Y-3925898D01*
X-8841402Y-3956378D02*
X-8825527Y-3971618D01*
X-8762027Y-3971618D01*
X-8746152Y-3956378D01*
X-8746152Y-3941138D01*
X-8762027Y-3925898D01*
X-8825527Y-3925898D01*
X-8841402Y-3910658D01*
X-8841402Y-3895418D01*
X-8825527Y-3880178D01*
X-8762027Y-3880178D01*
X-8746152Y-3895418D01*
X-8714402Y-3971618D02*
X-8714402Y-3880178D01*
X-8635027Y-3880178D01*
X-8619152Y-3895418D01*
X-8619152Y-3910658D01*
X-8635027Y-3925898D01*
X-8714402Y-3925898D01*
X-8555652Y-3910658D02*
X-8523902Y-3880178D01*
X-8523902Y-3971618D01*
X-4541652Y-2878348D02*
X-3041652Y-2878348D01*
X-3041652Y-1028348D01*
X-4541652Y-1028348D01*
X-4541652Y-2878348D01*
X-4009777Y-2918988D02*
X-3946277Y-2918988D01*
X-3978027Y-2918988D02*
X-3978027Y-3010428D01*
X-4009777Y-3010428D02*
X-3946277Y-3010428D01*
X-3898652Y-3010428D02*
X-3898652Y-2918988D01*
X-3803402Y-3010428D01*
X-3803402Y-2918988D01*
X-3771652Y-3010428D02*
X-3771652Y-2949468D01*
X-3739902Y-2918988D01*
X-3708152Y-2918988D01*
X-3676402Y-2949468D01*
X-3676402Y-3010428D01*
X-3771652Y-2979948D02*
X-3676402Y-2979948D01*
X-3612902Y-2949468D02*
X-3581152Y-2918988D01*
X-3581152Y-3010428D01*
X-4551652Y+151652D02*
X-3051652Y+151652D01*
X-3051652Y+2001652D01*
X-4551652Y+2001652D01*
X-4551652Y+151652D01*
X-4039777Y+111012D02*
X-3976277Y+111012D01*
X-4008027Y+111012D02*
X-4008027Y+19572D01*
X-4039777Y+19572D02*
X-3976277Y+19572D01*
X-3928652Y+19572D02*
X-3928652Y+111012D01*
X-3833402Y+19572D01*
X-3833402Y+111012D01*
X-3801652Y+19572D02*
X-3801652Y+80532D01*
X-3769902Y+111012D01*
X-3738152Y+111012D01*
X-3706402Y+80532D01*
X-3706402Y+19572D01*
X-3801652Y+50052D02*
X-3706402Y+50052D01*
X-3658777Y+95772D02*
X-3642902Y+111012D01*
X-3595277Y+111012D01*
X-3579402Y+95772D01*
X-3579402Y+80532D01*
X-3595277Y+65292D01*
X-3642902Y+65292D01*
X-3658777Y+50052D01*
X-3658777Y+19572D01*
X-3579402Y+19572D01*
D70*
X-10450000Y-7628348D02*
X-800000Y-7628348D01*
X-800000Y+2300000D01*
X-10450000Y+2300000D01*
X-10450000Y-7628348D01*
M02*
