G04 PROTEUS GERBER X2 FILE*
%TF.GenerationSoftware,Labcenter,Proteus,8.9-SP0-Build27865*%
%TF.CreationDate,2023-09-22T01:56:32+00:00*%
%TF.FileFunction,AssemblyDrawing,Top*%
%TF.FilePolarity,Positive*%
%TF.Part,Single*%
%TF.SameCoordinates,{f1bbcda0-0957-4744-b51b-1f7c2430d0f4}*%
%FSLAX45Y45*%
%MOMM*%
G01*
%TA.AperFunction,Material*%
%ADD71C,0.203200*%
%ADD73C,0.812800*%
%ADD30C,0.316990*%
%ADD31C,0.711200*%
%ADD32C,0.106680*%
%ADD33C,0.164590*%
%ADD34C,0.914400*%
%ADD35C,0.172210*%
%ADD36C,0.091440*%
%ADD37C,0.240790*%
%ADD38C,1.219200*%
%ADD39C,0.303100*%
%ADD40C,0.227330*%
%ADD41C,0.050000*%
%ADD42C,0.612000*%
%ADD43C,1.117000*%
%ADD44C,0.374060*%
%TA.AperFunction,Profile*%
%ADD70C,0.203200*%
%TD.AperFunction*%
D71*
X-10158812Y-7015508D02*
X-8360492Y-7015508D01*
X-8360492Y-6487188D01*
X-10158812Y-6487188D01*
X-10158812Y-7015508D01*
D73*
X-10021652Y-6878348D02*
X-10021652Y-6878348D01*
D30*
X-9640041Y-6783048D02*
X-9640041Y-6814747D01*
X-9608342Y-6846446D01*
X-9481546Y-6846446D01*
X-9449847Y-6814747D01*
X-9449847Y-6656251D01*
X-9323050Y-6719649D02*
X-9259652Y-6656251D01*
X-9259652Y-6846446D01*
X-8942661Y-6687950D02*
X-8974360Y-6656251D01*
X-9069457Y-6656251D01*
X-9101156Y-6687950D01*
X-9101156Y-6814747D01*
X-9069457Y-6846446D01*
X-8974360Y-6846446D01*
X-8942661Y-6814747D01*
X-8942661Y-6783048D01*
X-8974360Y-6751348D01*
X-9101156Y-6751348D01*
D71*
X-8158812Y-7019508D02*
X-6360492Y-7019508D01*
X-6360492Y-6491188D01*
X-8158812Y-6491188D01*
X-8158812Y-7019508D01*
D73*
X-8021652Y-6882348D02*
X-8021652Y-6882348D01*
D30*
X-7640041Y-6787048D02*
X-7640041Y-6818747D01*
X-7608342Y-6850446D01*
X-7481546Y-6850446D01*
X-7449847Y-6818747D01*
X-7449847Y-6660251D01*
X-7323050Y-6723649D02*
X-7259652Y-6660251D01*
X-7259652Y-6850446D01*
X-7101156Y-6660251D02*
X-6942661Y-6660251D01*
X-6942661Y-6691950D01*
X-7101156Y-6850446D01*
D71*
X-7510552Y-4340248D02*
X-6316752Y-4340248D01*
X-6316752Y-4162448D01*
X-7510552Y-4162448D01*
X-7510552Y-4340248D01*
D31*
X-7421652Y-4251348D02*
X-7421652Y-4251348D01*
D32*
X-6998996Y-4283352D02*
X-6998996Y-4219344D01*
X-6945656Y-4219344D01*
X-6934988Y-4230012D01*
X-6934988Y-4240680D01*
X-6945656Y-4251348D01*
X-6998996Y-4251348D01*
X-6945656Y-4251348D02*
X-6934988Y-4262016D01*
X-6934988Y-4283352D01*
X-6892316Y-4240680D02*
X-6870980Y-4219344D01*
X-6870980Y-4283352D01*
D71*
X-7526552Y-5540248D02*
X-6332752Y-5540248D01*
X-6332752Y-5362448D01*
X-7526552Y-5362448D01*
X-7526552Y-5540248D01*
D31*
X-7437652Y-5451348D02*
X-7437652Y-5451348D01*
D32*
X-7014996Y-5483352D02*
X-7014996Y-5419344D01*
X-6961656Y-5419344D01*
X-6950988Y-5430012D01*
X-6950988Y-5440680D01*
X-6961656Y-5451348D01*
X-7014996Y-5451348D01*
X-6961656Y-5451348D02*
X-6950988Y-5462016D01*
X-6950988Y-5483352D01*
X-6918984Y-5430012D02*
X-6908316Y-5419344D01*
X-6876312Y-5419344D01*
X-6865644Y-5430012D01*
X-6865644Y-5440680D01*
X-6876312Y-5451348D01*
X-6908316Y-5451348D01*
X-6918984Y-5462016D01*
X-6918984Y-5483352D01*
X-6865644Y-5483352D01*
D71*
X-7526552Y-5840248D02*
X-6332752Y-5840248D01*
X-6332752Y-5662448D01*
X-7526552Y-5662448D01*
X-7526552Y-5840248D01*
D31*
X-6421652Y-5751348D02*
X-6421652Y-5751348D01*
D32*
X-7014996Y-5783352D02*
X-7014996Y-5719344D01*
X-6961656Y-5719344D01*
X-6950988Y-5730012D01*
X-6950988Y-5740680D01*
X-6961656Y-5751348D01*
X-7014996Y-5751348D01*
X-6961656Y-5751348D02*
X-6950988Y-5762016D01*
X-6950988Y-5783352D01*
X-6918984Y-5730012D02*
X-6908316Y-5719344D01*
X-6876312Y-5719344D01*
X-6865644Y-5730012D01*
X-6865644Y-5740680D01*
X-6876312Y-5751348D01*
X-6865644Y-5762016D01*
X-6865644Y-5772684D01*
X-6876312Y-5783352D01*
X-6908316Y-5783352D01*
X-6918984Y-5772684D01*
X-6897648Y-5751348D02*
X-6876312Y-5751348D01*
D71*
X-10076552Y-5890248D02*
X-8882752Y-5890248D01*
X-8882752Y-5712448D01*
X-10076552Y-5712448D01*
X-10076552Y-5890248D01*
D31*
X-8971652Y-5801348D02*
X-8971652Y-5801348D01*
D32*
X-9564996Y-5833352D02*
X-9564996Y-5769344D01*
X-9511656Y-5769344D01*
X-9500988Y-5780012D01*
X-9500988Y-5790680D01*
X-9511656Y-5801348D01*
X-9564996Y-5801348D01*
X-9511656Y-5801348D02*
X-9500988Y-5812016D01*
X-9500988Y-5833352D01*
X-9415644Y-5812016D02*
X-9479652Y-5812016D01*
X-9436980Y-5769344D01*
X-9436980Y-5833352D01*
D71*
X-10076552Y-5590248D02*
X-8882752Y-5590248D01*
X-8882752Y-5412448D01*
X-10076552Y-5412448D01*
X-10076552Y-5590248D01*
D31*
X-9987652Y-5501348D02*
X-9987652Y-5501348D01*
D32*
X-9564996Y-5533352D02*
X-9564996Y-5469344D01*
X-9511656Y-5469344D01*
X-9500988Y-5480012D01*
X-9500988Y-5490680D01*
X-9511656Y-5501348D01*
X-9564996Y-5501348D01*
X-9511656Y-5501348D02*
X-9500988Y-5512016D01*
X-9500988Y-5533352D01*
X-9415644Y-5469344D02*
X-9468984Y-5469344D01*
X-9468984Y-5490680D01*
X-9426312Y-5490680D01*
X-9415644Y-5501348D01*
X-9415644Y-5522684D01*
X-9426312Y-5533352D01*
X-9458316Y-5533352D01*
X-9468984Y-5522684D01*
D71*
X-5960552Y-4940248D02*
X-5782752Y-4940248D01*
X-5782752Y-3746448D01*
X-5960552Y-3746448D01*
X-5960552Y-4940248D01*
D31*
X-5871652Y-4851348D02*
X-5871652Y-4851348D01*
D32*
X-5839648Y-4428692D02*
X-5903656Y-4428692D01*
X-5903656Y-4375352D01*
X-5892988Y-4364684D01*
X-5882320Y-4364684D01*
X-5871652Y-4375352D01*
X-5871652Y-4428692D01*
X-5871652Y-4375352D02*
X-5860984Y-4364684D01*
X-5839648Y-4364684D01*
X-5892988Y-4279340D02*
X-5903656Y-4290008D01*
X-5903656Y-4322012D01*
X-5892988Y-4332680D01*
X-5850316Y-4332680D01*
X-5839648Y-4322012D01*
X-5839648Y-4290008D01*
X-5850316Y-4279340D01*
X-5860984Y-4279340D01*
X-5871652Y-4290008D01*
X-5871652Y-4332680D01*
D71*
X-5610552Y-4906248D02*
X-5432752Y-4906248D01*
X-5432752Y-3712448D01*
X-5610552Y-3712448D01*
X-5610552Y-4906248D01*
D31*
X-5521652Y-4817348D02*
X-5521652Y-4817348D01*
D32*
X-5489648Y-4394692D02*
X-5553656Y-4394692D01*
X-5553656Y-4341352D01*
X-5542988Y-4330684D01*
X-5532320Y-4330684D01*
X-5521652Y-4341352D01*
X-5521652Y-4394692D01*
X-5521652Y-4341352D02*
X-5510984Y-4330684D01*
X-5489648Y-4330684D01*
X-5553656Y-4298680D02*
X-5553656Y-4245340D01*
X-5542988Y-4245340D01*
X-5489648Y-4298680D01*
D71*
X-7526552Y-4640248D02*
X-6332752Y-4640248D01*
X-6332752Y-4462448D01*
X-7526552Y-4462448D01*
X-7526552Y-4640248D01*
D31*
X-6421652Y-4551348D02*
X-6421652Y-4551348D01*
D32*
X-7014996Y-4583352D02*
X-7014996Y-4519344D01*
X-6961656Y-4519344D01*
X-6950988Y-4530012D01*
X-6950988Y-4540680D01*
X-6961656Y-4551348D01*
X-7014996Y-4551348D01*
X-6961656Y-4551348D02*
X-6950988Y-4562016D01*
X-6950988Y-4583352D01*
X-6908316Y-4551348D02*
X-6918984Y-4540680D01*
X-6918984Y-4530012D01*
X-6908316Y-4519344D01*
X-6876312Y-4519344D01*
X-6865644Y-4530012D01*
X-6865644Y-4540680D01*
X-6876312Y-4551348D01*
X-6908316Y-4551348D01*
X-6918984Y-4562016D01*
X-6918984Y-4572684D01*
X-6908316Y-4583352D01*
X-6876312Y-4583352D01*
X-6865644Y-4572684D01*
X-6865644Y-4562016D01*
X-6876312Y-4551348D01*
D71*
X-7510552Y-3990248D02*
X-6316752Y-3990248D01*
X-6316752Y-3812448D01*
X-7510552Y-3812448D01*
X-7510552Y-3990248D01*
D31*
X-6405652Y-3901348D02*
X-6405652Y-3901348D01*
D32*
X-6998996Y-3933352D02*
X-6998996Y-3869344D01*
X-6945656Y-3869344D01*
X-6934988Y-3880012D01*
X-6934988Y-3890680D01*
X-6945656Y-3901348D01*
X-6998996Y-3901348D01*
X-6945656Y-3901348D02*
X-6934988Y-3912016D01*
X-6934988Y-3933352D01*
X-6849644Y-3890680D02*
X-6860312Y-3901348D01*
X-6892316Y-3901348D01*
X-6902984Y-3890680D01*
X-6902984Y-3880012D01*
X-6892316Y-3869344D01*
X-6860312Y-3869344D01*
X-6849644Y-3880012D01*
X-6849644Y-3922684D01*
X-6860312Y-3933352D01*
X-6892316Y-3933352D01*
D71*
X-5608812Y-5696508D02*
X-5334492Y-5696508D01*
X-5334492Y-5168188D01*
X-5608812Y-5168188D01*
X-5608812Y-5696508D01*
D31*
X-5471652Y-5305348D02*
X-5471652Y-5305348D01*
D33*
X-5438733Y-5465267D02*
X-5422274Y-5481726D01*
X-5422274Y-5531103D01*
X-5455192Y-5564021D01*
X-5488111Y-5564021D01*
X-5521029Y-5531103D01*
X-5521029Y-5481726D01*
X-5504570Y-5465267D01*
X-5488111Y-5399430D02*
X-5521029Y-5366512D01*
X-5422274Y-5366512D01*
D71*
X-5031812Y-5696508D02*
X-4757492Y-5696508D01*
X-4757492Y-5168188D01*
X-5031812Y-5168188D01*
X-5031812Y-5696508D01*
D31*
X-4894652Y-5305348D02*
X-4894652Y-5305348D01*
D33*
X-4861733Y-5465267D02*
X-4845274Y-5481726D01*
X-4845274Y-5531103D01*
X-4878192Y-5564021D01*
X-4911111Y-5564021D01*
X-4944029Y-5531103D01*
X-4944029Y-5481726D01*
X-4927570Y-5465267D01*
X-4927570Y-5415889D02*
X-4944029Y-5399430D01*
X-4944029Y-5350053D01*
X-4927570Y-5333594D01*
X-4911111Y-5333594D01*
X-4894652Y-5350053D01*
X-4894652Y-5399430D01*
X-4878192Y-5415889D01*
X-4845274Y-5415889D01*
X-4845274Y-5333594D01*
D71*
X-5908812Y-6965508D02*
X-5634492Y-6965508D01*
X-5634492Y-6437188D01*
X-5908812Y-6437188D01*
X-5908812Y-6965508D01*
D31*
X-5771652Y-6574348D02*
X-5771652Y-6574348D01*
D33*
X-5738733Y-6734267D02*
X-5722274Y-6750726D01*
X-5722274Y-6800103D01*
X-5755192Y-6833021D01*
X-5788111Y-6833021D01*
X-5821029Y-6800103D01*
X-5821029Y-6750726D01*
X-5804570Y-6734267D01*
X-5804570Y-6684889D02*
X-5821029Y-6668430D01*
X-5821029Y-6619053D01*
X-5804570Y-6602594D01*
X-5788111Y-6602594D01*
X-5771652Y-6619053D01*
X-5755192Y-6602594D01*
X-5738733Y-6602594D01*
X-5722274Y-6619053D01*
X-5722274Y-6668430D01*
X-5738733Y-6684889D01*
X-5771652Y-6651971D02*
X-5771652Y-6619053D01*
D71*
X-5308812Y-6965508D02*
X-5034492Y-6965508D01*
X-5034492Y-6437188D01*
X-5308812Y-6437188D01*
X-5308812Y-6965508D01*
D31*
X-5171652Y-6574348D02*
X-5171652Y-6574348D01*
D33*
X-5138733Y-6734267D02*
X-5122274Y-6750726D01*
X-5122274Y-6800103D01*
X-5155192Y-6833021D01*
X-5188111Y-6833021D01*
X-5221029Y-6800103D01*
X-5221029Y-6750726D01*
X-5204570Y-6734267D01*
X-5155192Y-6602594D02*
X-5155192Y-6701348D01*
X-5221029Y-6635512D01*
X-5122274Y-6635512D01*
D71*
X-10085952Y-5243588D02*
X-8841352Y-5243588D01*
X-8841352Y-4956568D01*
X-10085952Y-4956568D01*
X-10085952Y-5243588D01*
D34*
X-9971652Y-5101348D02*
X-9971652Y-5101348D01*
D35*
X-9601421Y-5151742D02*
X-9601421Y-5048415D01*
X-9532537Y-5048415D01*
X-9498095Y-5082857D01*
X-9498095Y-5117300D01*
X-9532537Y-5151742D01*
X-9601421Y-5151742D01*
X-9429210Y-5082857D02*
X-9394768Y-5048415D01*
X-9394768Y-5151742D01*
D71*
X-8616432Y-6165648D02*
X-8329412Y-6165648D01*
X-8329412Y-4921048D01*
X-8616432Y-4921048D01*
X-8616432Y-6165648D01*
D34*
X-8471652Y-6051348D02*
X-8471652Y-6051348D01*
D35*
X-8421258Y-5681117D02*
X-8524585Y-5681117D01*
X-8524585Y-5612233D01*
X-8490143Y-5577791D01*
X-8455700Y-5577791D01*
X-8421258Y-5612233D01*
X-8421258Y-5681117D01*
X-8507364Y-5526127D02*
X-8524585Y-5508906D01*
X-8524585Y-5457243D01*
X-8507364Y-5440022D01*
X-8490143Y-5440022D01*
X-8472922Y-5457243D01*
X-8472922Y-5508906D01*
X-8455700Y-5526127D01*
X-8421258Y-5526127D01*
X-8421258Y-5440022D01*
D71*
X-5862812Y-2665508D02*
X-5588492Y-2665508D01*
X-5588492Y-2391188D01*
X-5862812Y-2391188D01*
X-5862812Y-2665508D01*
D36*
X-5716508Y-2601500D02*
X-5707364Y-2601500D01*
X-5698220Y-2592356D01*
X-5698220Y-2555780D01*
X-5707364Y-2546636D01*
X-5753084Y-2546636D01*
X-5753084Y-2473484D02*
X-5753084Y-2519204D01*
X-5734796Y-2519204D01*
X-5734796Y-2482628D01*
X-5725652Y-2473484D01*
X-5707364Y-2473484D01*
X-5698220Y-2482628D01*
X-5698220Y-2510060D01*
X-5707364Y-2519204D01*
D71*
X-6012812Y-2015508D02*
X-5484492Y-2015508D01*
X-5484492Y-1741188D01*
X-6012812Y-1741188D01*
X-6012812Y-2015508D01*
D73*
X-5621652Y-1878348D02*
X-5621652Y-1878348D01*
D33*
X-5880325Y-1894808D02*
X-5880325Y-1911267D01*
X-5863866Y-1927726D01*
X-5798030Y-1927726D01*
X-5781571Y-1911267D01*
X-5781571Y-1828971D01*
X-5649898Y-1894808D02*
X-5748652Y-1894808D01*
X-5682816Y-1828971D01*
X-5682816Y-1927726D01*
D71*
X-7510552Y-5190248D02*
X-6316752Y-5190248D01*
X-6316752Y-5012448D01*
X-7510552Y-5012448D01*
X-7510552Y-5190248D01*
D31*
X-6405652Y-5101348D02*
X-6405652Y-5101348D01*
D32*
X-7041668Y-5133352D02*
X-7041668Y-5069344D01*
X-6988328Y-5069344D01*
X-6977660Y-5080012D01*
X-6977660Y-5090680D01*
X-6988328Y-5101348D01*
X-7041668Y-5101348D01*
X-6988328Y-5101348D02*
X-6977660Y-5112016D01*
X-6977660Y-5133352D01*
X-6934988Y-5090680D02*
X-6913652Y-5069344D01*
X-6913652Y-5133352D01*
X-6870980Y-5122684D02*
X-6870980Y-5080012D01*
X-6860312Y-5069344D01*
X-6817640Y-5069344D01*
X-6806972Y-5080012D01*
X-6806972Y-5122684D01*
X-6817640Y-5133352D01*
X-6860312Y-5133352D01*
X-6870980Y-5122684D01*
X-6870980Y-5133352D02*
X-6806972Y-5069344D01*
D71*
X-5808812Y+384492D02*
X-5534492Y+384492D01*
X-5534492Y+658812D01*
X-5808812Y+658812D01*
X-5808812Y+384492D01*
D36*
X-5662508Y+448500D02*
X-5653364Y+448500D01*
X-5644220Y+457644D01*
X-5644220Y+494220D01*
X-5653364Y+503364D01*
X-5699084Y+503364D01*
X-5671652Y+539940D02*
X-5680796Y+530796D01*
X-5689940Y+530796D01*
X-5699084Y+539940D01*
X-5699084Y+567372D01*
X-5689940Y+576516D01*
X-5680796Y+576516D01*
X-5671652Y+567372D01*
X-5671652Y+539940D01*
X-5662508Y+530796D01*
X-5653364Y+530796D01*
X-5644220Y+539940D01*
X-5644220Y+567372D01*
X-5653364Y+576516D01*
X-5662508Y+576516D01*
X-5671652Y+567372D01*
D71*
X-6012812Y+984492D02*
X-5484492Y+984492D01*
X-5484492Y+1258812D01*
X-6012812Y+1258812D01*
X-6012812Y+984492D01*
D73*
X-5621652Y+1121652D02*
X-5621652Y+1121652D01*
D33*
X-5880325Y+1105192D02*
X-5880325Y+1088733D01*
X-5863866Y+1072274D01*
X-5798030Y+1072274D01*
X-5781571Y+1088733D01*
X-5781571Y+1171029D01*
X-5732193Y+1171029D02*
X-5649898Y+1171029D01*
X-5649898Y+1154570D01*
X-5732193Y+1072274D01*
D71*
X-4448812Y-6909508D02*
X-4047492Y-6909508D01*
X-4047492Y-6127188D01*
X-4448812Y-6127188D01*
X-4448812Y-6909508D01*
D73*
X-4311652Y-6264348D02*
X-4311652Y-6264348D01*
D37*
X-4320389Y-6710981D02*
X-4199993Y-6710981D01*
X-4175914Y-6686902D01*
X-4175914Y-6590586D01*
X-4199993Y-6566507D01*
X-4320389Y-6566507D01*
X-4296310Y-6494269D02*
X-4320389Y-6470190D01*
X-4320389Y-6397953D01*
X-4296310Y-6373874D01*
X-4272231Y-6373874D01*
X-4248152Y-6397953D01*
X-4248152Y-6470190D01*
X-4224072Y-6494269D01*
X-4175914Y-6494269D01*
X-4175914Y-6373874D01*
D71*
X-4454812Y-4865508D02*
X-4053492Y-4865508D01*
X-4053492Y-4083188D01*
X-4454812Y-4083188D01*
X-4454812Y-4865508D01*
D73*
X-4317652Y-4220348D02*
X-4317652Y-4220348D01*
D37*
X-4326389Y-4666981D02*
X-4205993Y-4666981D01*
X-4181914Y-4642902D01*
X-4181914Y-4546586D01*
X-4205993Y-4522507D01*
X-4326389Y-4522507D01*
X-4278231Y-4426190D02*
X-4326389Y-4378032D01*
X-4181914Y-4378032D01*
D71*
X-2008812Y-873508D02*
X-1607492Y-873508D01*
X-1607492Y-91188D01*
X-2008812Y-91188D01*
X-2008812Y-873508D01*
D73*
X-1871652Y-228348D02*
X-1871652Y-228348D01*
D37*
X-1832231Y-674981D02*
X-1880389Y-626823D01*
X-1880389Y-578665D01*
X-1832231Y-530507D01*
X-1784072Y-530507D01*
X-1735914Y-578665D01*
X-1735914Y-626823D01*
X-1784072Y-674981D01*
X-1832231Y-674981D01*
X-1784072Y-578665D02*
X-1735914Y-530507D01*
X-1832231Y-434190D02*
X-1880389Y-386032D01*
X-1735914Y-386032D01*
D71*
X-2008812Y+1180492D02*
X-1607492Y+1180492D01*
X-1607492Y+1962812D01*
X-2008812Y+1962812D01*
X-2008812Y+1180492D01*
D73*
X-1871652Y+1825652D02*
X-1871652Y+1825652D01*
D37*
X-1832231Y+1379019D02*
X-1880389Y+1427177D01*
X-1880389Y+1475335D01*
X-1832231Y+1523493D01*
X-1784072Y+1523493D01*
X-1735914Y+1475335D01*
X-1735914Y+1427177D01*
X-1784072Y+1379019D01*
X-1832231Y+1379019D01*
X-1784072Y+1475335D02*
X-1735914Y+1523493D01*
X-1856310Y+1595731D02*
X-1880389Y+1619810D01*
X-1880389Y+1692047D01*
X-1856310Y+1716126D01*
X-1832231Y+1716126D01*
X-1808152Y+1692047D01*
X-1808152Y+1619810D01*
X-1784072Y+1595731D01*
X-1735914Y+1595731D01*
X-1735914Y+1716126D01*
D71*
X-2045712Y-5113088D02*
X-1263392Y-5113088D01*
X-1263392Y-4203768D01*
X-2045712Y-4203768D01*
X-2045712Y-5113088D01*
D38*
X-1748532Y-4455228D02*
X-1748532Y-4455228D01*
D39*
X-1624241Y-4900912D02*
X-1593930Y-4900912D01*
X-1563620Y-4870602D01*
X-1563620Y-4749360D01*
X-1593930Y-4719049D01*
X-1745483Y-4719049D01*
X-1715173Y-4628118D02*
X-1745483Y-4597807D01*
X-1745483Y-4506876D01*
X-1715173Y-4476565D01*
X-1684862Y-4476565D01*
X-1654552Y-4506876D01*
X-1654552Y-4597807D01*
X-1624241Y-4628118D01*
X-1563620Y-4628118D01*
X-1563620Y-4476565D01*
D71*
X-1968832Y-7089968D02*
X-1186512Y-7089968D01*
X-1186512Y-6180648D01*
X-1968832Y-6180648D01*
X-1968832Y-7089968D01*
D38*
X-1671652Y-6432108D02*
X-1671652Y-6432108D01*
D39*
X-1547361Y-6877792D02*
X-1517050Y-6877792D01*
X-1486740Y-6847482D01*
X-1486740Y-6726240D01*
X-1517050Y-6695929D01*
X-1668603Y-6695929D01*
X-1638293Y-6453445D02*
X-1668603Y-6483756D01*
X-1668603Y-6574687D01*
X-1638293Y-6604998D01*
X-1517050Y-6604998D01*
X-1486740Y-6574687D01*
X-1486740Y-6483756D01*
X-1517050Y-6453445D01*
X-1547361Y-6453445D01*
X-1577672Y-6483756D01*
X-1577672Y-6604998D01*
D71*
X-2018832Y-2789968D02*
X-1236512Y-2789968D01*
X-1236512Y-1880648D01*
X-2018832Y-1880648D01*
X-2018832Y-2789968D01*
D38*
X-1721652Y-2132108D02*
X-1721652Y-2132108D01*
D40*
X-1604939Y-2608104D02*
X-1582206Y-2608104D01*
X-1559473Y-2585371D01*
X-1559473Y-2494439D01*
X-1582206Y-2471706D01*
X-1695871Y-2471706D01*
X-1650405Y-2380774D02*
X-1695871Y-2335308D01*
X-1559473Y-2335308D01*
X-1627672Y-2198910D02*
X-1650405Y-2221643D01*
X-1673138Y-2221643D01*
X-1695871Y-2198910D01*
X-1695871Y-2130711D01*
X-1673138Y-2107978D01*
X-1650405Y-2107978D01*
X-1627672Y-2130711D01*
X-1627672Y-2198910D01*
X-1604939Y-2221643D01*
X-1582206Y-2221643D01*
X-1559473Y-2198910D01*
X-1559473Y-2130711D01*
X-1582206Y-2107978D01*
X-1604939Y-2107978D01*
X-1627672Y-2130711D01*
D41*
X-7321652Y-3251348D02*
X-7321652Y+1624652D01*
X-10161652Y+1624652D02*
X-10161652Y-3251348D01*
X-9666652Y-3251348D01*
X-7816652Y-3251348D02*
X-7321652Y-3251348D01*
X-7816652Y-3251348D02*
X-7816652Y-3868348D01*
X-9666652Y-3868348D01*
X-9666652Y-3251348D01*
X-7321652Y+1624652D02*
X-8309652Y+1624652D01*
X-8309652Y+1711652D01*
X-9172652Y+1711652D01*
X-9172652Y+1624652D01*
X-10161652Y+1624652D01*
D42*
X-7471652Y-3098348D02*
X-7471652Y-3098348D01*
D43*
X-8406552Y-2195348D02*
X-8406552Y-2865548D01*
X-9076752Y-2865548D01*
X-9076752Y-2195348D01*
X-8741652Y-2865548D02*
X-8741652Y-2418748D01*
X-8518252Y-1971948D02*
X-8406552Y-1860248D01*
X-8406552Y-1413448D01*
X-8518252Y-1301748D01*
X-8629952Y-1301748D01*
X-8741652Y-1413448D01*
X-8741652Y-1860248D01*
X-8853352Y-1971948D01*
X-8965052Y-1971948D01*
X-9076752Y-1860248D01*
X-9076752Y-1413448D01*
X-8965052Y-1301748D01*
X-8406552Y-1078348D02*
X-9076752Y-1078348D01*
X-9076752Y-519848D01*
X-8965052Y-408148D01*
X-8853352Y-408148D01*
X-8741652Y-519848D01*
X-8741652Y-1078348D01*
X-8853352Y+38652D02*
X-9076752Y+262052D01*
X-8406552Y+262052D01*
D71*
X-4551812Y-2888508D02*
X-3031492Y-2888508D01*
X-3031492Y-1018188D01*
X-4551812Y-1018188D01*
X-4551812Y-2888508D01*
D38*
X-3261652Y-2158348D02*
X-3261652Y-2158348D01*
D44*
X-3903871Y-2514444D02*
X-3903871Y-2364819D01*
X-3903871Y-2439631D02*
X-3679432Y-2439631D01*
X-3679432Y-2514444D02*
X-3679432Y-2364819D01*
X-3679432Y-2252599D02*
X-3903871Y-2252599D01*
X-3679432Y-2028161D01*
X-3903871Y-2028161D01*
X-3679432Y-1953348D02*
X-3829058Y-1953348D01*
X-3903871Y-1878536D01*
X-3903871Y-1803723D01*
X-3829058Y-1728910D01*
X-3679432Y-1728910D01*
X-3754245Y-1953348D02*
X-3754245Y-1728910D01*
X-3829058Y-1579285D02*
X-3903871Y-1504472D01*
X-3679432Y-1504472D01*
D71*
X-4561812Y+141492D02*
X-3041492Y+141492D01*
X-3041492Y+2011812D01*
X-4561812Y+2011812D01*
X-4561812Y+141492D01*
D38*
X-3271652Y+871652D02*
X-3271652Y+871652D01*
D44*
X-3913871Y+515556D02*
X-3913871Y+665181D01*
X-3913871Y+590369D02*
X-3689432Y+590369D01*
X-3689432Y+515556D02*
X-3689432Y+665181D01*
X-3689432Y+777401D02*
X-3913871Y+777401D01*
X-3689432Y+1001839D01*
X-3913871Y+1001839D01*
X-3689432Y+1076652D02*
X-3839058Y+1076652D01*
X-3913871Y+1151464D01*
X-3913871Y+1226277D01*
X-3839058Y+1301090D01*
X-3689432Y+1301090D01*
X-3764245Y+1076652D02*
X-3764245Y+1301090D01*
X-3876464Y+1413309D02*
X-3913871Y+1450715D01*
X-3913871Y+1562934D01*
X-3876464Y+1600341D01*
X-3839058Y+1600341D01*
X-3801652Y+1562934D01*
X-3801652Y+1450715D01*
X-3764245Y+1413309D01*
X-3689432Y+1413309D01*
X-3689432Y+1600341D01*
D70*
X-10450000Y-7628348D02*
X-800000Y-7628348D01*
X-800000Y+2300000D01*
X-10450000Y+2300000D01*
X-10450000Y-7628348D01*
M02*
