G04 PROTEUS GERBER X2 FILE*
%TF.GenerationSoftware,Labcenter,Proteus,8.9-SP0-Build27865*%
%TF.CreationDate,2023-09-22T01:56:32+00:00*%
%TF.FileFunction,Copper,L2,Bot*%
%TF.FilePolarity,Positive*%
%TF.Part,Single*%
%TF.SameCoordinates,{f1bbcda0-0957-4744-b51b-1f7c2430d0f4}*%
%FSLAX45Y45*%
%MOMM*%
G01*
%TA.AperFunction,Conductor*%
%ADD11C,1.524000*%
%ADD10C,0.762000*%
%TA.AperFunction,ViaPad*%
%ADD12C,0.762000*%
%TA.AperFunction,ComponentPad*%
%ADD13R,2.032000X2.032000*%
%TA.AperFunction,ComponentPad*%
%ADD14C,1.778000*%
%ADD15C,2.286000*%
%ADD16C,3.048000*%
%TA.AperFunction,ComponentPad*%
%ADD17R,1.530000X1.530000*%
%ADD18C,1.530000*%
%TA.AperFunction,OtherPad,Unknown*%
%ADD19C,3.048000*%
%TA.AperFunction,Profile*%
%ADD70C,0.203200*%
%TD.AperFunction*%
D11*
X-1568652Y+1314652D02*
X-1568652Y+2040282D01*
X-4703022Y+2040282D01*
X-5621652Y+1121652D01*
X-1568652Y+1314652D02*
X-1568652Y+870152D01*
X-1871652Y+870152D01*
X-1871652Y+1317652D01*
X-1568652Y+1314652D02*
X-1251152Y+997152D01*
X-1251152Y-6011608D01*
X-1671652Y-6432108D01*
D10*
X-7437652Y-5451348D02*
X-6721652Y-5451348D01*
X-6421652Y-5751348D01*
X-5521652Y-3801348D02*
X-5521652Y-4501348D01*
X-5871652Y-4851348D01*
X-9513652Y-6878348D02*
X-9767652Y-6878348D01*
X-9767652Y-6878349D02*
X-9767652Y-7067348D01*
X-10021652Y-7067348D01*
X-10021652Y-6878348D01*
X-9767652Y-6878349D02*
X-9767652Y-6878348D01*
X-9513652Y-6878349D02*
X-9513652Y-6878348D01*
X-9259652Y-6878348D02*
X-9259652Y-7130848D01*
X-9513652Y-7130848D01*
X-9513652Y-6878349D01*
X-9005652Y-6878348D02*
X-9005652Y-7130848D01*
X-8751652Y-7130848D01*
X-8751652Y-6878348D01*
D11*
X-3283152Y+298652D02*
X-1632152Y+298652D01*
X-1441652Y+108152D01*
X-1441652Y-1852108D01*
X-1721652Y-2132108D01*
X-6331152Y-2050848D02*
X-6267652Y-2114348D01*
X-5632652Y-2114348D01*
X-5418652Y-2328348D01*
X-4371652Y-2328348D01*
X-6331152Y-2050848D02*
X-7029652Y-2749348D01*
X-7029652Y-4590848D01*
X-6839152Y-4781348D01*
X-6267652Y-4781348D01*
X-3537152Y-18848D02*
X-3261652Y-294348D01*
X-3261652Y-1758348D01*
X-4299152Y+44652D02*
X-3600652Y+44652D01*
X-3537152Y-18848D01*
X-4299152Y+44652D02*
X-4299152Y+235152D01*
X-4381652Y+235152D01*
X-4381652Y+451652D01*
X-3283152Y+298652D02*
X-3283152Y+489152D01*
X-3271652Y+500652D01*
X-3271652Y+871652D01*
X-3283152Y+298652D02*
X-3346652Y+298652D01*
X-3537152Y+108152D01*
X-3537152Y-18848D01*
D10*
X-7220152Y-5225848D02*
X-7283652Y-5289348D01*
X-7709652Y-5289348D01*
X-8471652Y-6051348D01*
X-7220152Y-5225848D02*
X-7220152Y-4102848D01*
X-7421652Y-3901348D01*
X-7220152Y-5225848D02*
X-7156652Y-5289348D01*
X-6593652Y-5289348D01*
X-6405652Y-5101348D01*
X-7471652Y-1828347D02*
X-7471652Y-1828348D01*
X-6743651Y-1828347D01*
X-5505652Y-590348D01*
X-5505652Y+806652D01*
X-5360652Y+951652D01*
X-4381652Y+951652D01*
D11*
X-6497652Y-6628348D02*
X-5920652Y-6051348D01*
X-2013152Y-6051348D01*
X-1949652Y-6114848D01*
X-8955652Y-5101348D02*
X-8955652Y-4154347D01*
X-10011652Y-3098348D01*
X-10011651Y-3098348D01*
X-1748532Y-4455228D02*
X-1441652Y-4762108D01*
X-1441652Y-5606848D01*
X-1949652Y-6114848D01*
X-9259652Y-6624348D02*
X-9259652Y-5789348D01*
X-8971652Y-5501348D01*
X-1949652Y-6114848D02*
X-1949652Y-6550348D01*
X-1671652Y-6828348D01*
X-8471652Y-5035348D02*
X-8109152Y-5035348D01*
X-8043152Y-5101348D01*
X-7421652Y-5101348D01*
X-1748532Y-4455228D02*
X-1748532Y-3257348D01*
X-1721652Y-3230468D01*
X-1721652Y-2528348D01*
X-8955652Y-5101348D02*
X-8537652Y-5101348D01*
X-8471652Y-5035348D01*
X-8971652Y-5501348D02*
X-8955652Y-5485348D01*
X-8955652Y-5101348D01*
X-8497652Y-6624348D02*
X-8025652Y-6624348D01*
X-8021652Y-6628348D01*
X-7005652Y-6628348D02*
X-7259652Y-6628348D01*
X-6497652Y-6628348D02*
X-6751652Y-6628348D01*
X-7005652Y-6628348D01*
X-9005652Y-6624348D02*
X-9259652Y-6624348D01*
X-9513652Y-6624348D01*
X-7513652Y-6628348D02*
X-7767652Y-6628348D01*
X-8021652Y-6628348D01*
X-9767652Y-6624348D02*
X-10021652Y-6624348D01*
X-7259652Y-6628348D02*
X-7513652Y-6628348D01*
X-8497652Y-6624348D02*
X-8751652Y-6624348D01*
X-9513652Y-6624348D02*
X-9767652Y-6624348D01*
X-8751652Y-6624348D02*
X-9005652Y-6624348D01*
X-3271652Y+1271652D02*
X-3841652Y+701652D01*
X-4381652Y+701652D01*
X-3271652Y+1271652D02*
X-2971652Y+1571652D01*
X-1871652Y+1571652D01*
D10*
X-7471652Y-812357D02*
X-7005661Y-812357D01*
X-5671652Y+521652D01*
D11*
X-3261652Y-2158348D02*
X-2965652Y-1862348D01*
X-2965652Y-926848D01*
X-2775152Y-736348D01*
X-1871652Y-736348D01*
X-4108652Y-2368348D02*
X-4108652Y-2177848D01*
X-4045152Y-2114348D01*
X-3261652Y-2158348D02*
X-3918152Y-2158348D01*
X-3918152Y-2114348D01*
X-4045152Y-2114348D01*
X-4045152Y-1288848D01*
X-4235652Y-1098348D01*
X-4535152Y-1098348D01*
X-5315152Y-1878348D01*
X-5621652Y-1878348D01*
X-4108652Y-2368348D02*
X-4108652Y-2578348D01*
X-4371652Y-2578348D01*
X-2330652Y-3574848D02*
X-2330652Y-1542848D01*
X-1632152Y-844348D01*
X-1632152Y-482348D01*
X-1871652Y-482348D01*
X-2330652Y-3574848D02*
X-2330652Y-4269348D01*
X-1748532Y-4851468D01*
D10*
X-7471652Y-1066348D02*
X-7471652Y-1066347D01*
X-9987652Y-5501348D02*
X-9971652Y-5485348D01*
X-9971652Y-5101348D01*
X-7471652Y-1574348D02*
X-7471652Y-1574347D01*
X-9987652Y-5501348D02*
X-9987652Y-5801348D01*
D11*
X-6497652Y-6882348D02*
X-6267652Y-6882348D01*
X-6213652Y-6828348D01*
X-5771652Y-6828348D01*
X-7259652Y-6882348D02*
X-7005652Y-6882348D01*
X-6751652Y-6882348D02*
X-6497652Y-6882348D01*
X-7005652Y-6882348D02*
X-6751652Y-6882348D01*
X-7767652Y-6882348D02*
X-8021652Y-6882348D01*
X-7513652Y-6882348D02*
X-7259652Y-6882348D01*
X-7767652Y-6882348D02*
X-7513652Y-6882348D01*
D10*
X-7471652Y-1574348D02*
X-8524502Y-2627198D01*
X-8524502Y-4305748D01*
X-8533142Y-4314388D01*
X-9971652Y-4328348D02*
X-9971652Y-5101348D01*
D11*
X-6331152Y-2050848D02*
X-6331152Y-1669848D01*
X-6213152Y-1669848D01*
X-4498652Y+44652D01*
X-4299152Y+44652D01*
D10*
X-5875652Y-1878348D02*
X-5795410Y-1798106D01*
X-5795410Y-1739582D01*
X-4526026Y-470198D01*
X-3620535Y-470198D01*
X-2955159Y-458626D02*
X-2724881Y-228348D01*
X-1871652Y-228348D01*
X-7471652Y-2082348D02*
X-6826335Y-2082348D01*
X-6805578Y-2061591D01*
X-6631606Y-2954649D02*
X-6527223Y-3059032D01*
X-4857086Y-3059032D01*
X-4857086Y-2742914D01*
X-4871652Y-2728348D01*
X-4871652Y-1828348D02*
X-4371652Y-1828348D01*
X-5725652Y-2528348D02*
X-6406651Y-2528348D01*
X-6408578Y-2526421D01*
X-6595000Y-1064174D02*
X-7469478Y-1064174D01*
X-7471652Y-1066348D01*
X-9259652Y-6878348D02*
X-9005652Y-6878348D01*
X-8751652Y-6878348D02*
X-8497652Y-6878348D01*
D11*
X-4311652Y-6264348D02*
X-5337652Y-6264348D01*
X-5471652Y-6398348D01*
X-5471652Y-6828348D01*
X-5171652Y-6828348D01*
D10*
X-5171652Y-6574348D02*
X-4807152Y-6574348D01*
X-8971652Y-5801348D02*
X-8971652Y-6102977D01*
X-8729615Y-6345014D01*
X-8031318Y-6345014D01*
X-7437652Y-5751348D01*
D11*
X-2330652Y-3574848D02*
X-2477152Y-3428348D01*
X-6471652Y-3428348D01*
X-6648652Y-3605348D01*
X-6648652Y-4008348D01*
X-6405652Y-4251348D01*
D10*
X-6405652Y-3901348D02*
X-6166098Y-3661794D01*
X-6166098Y-3597270D01*
X-7602687Y-3628628D02*
X-8213157Y-4079075D01*
X-8224752Y-4575247D01*
X-7461551Y-4575247D01*
X-7437652Y-4551348D01*
X-7421652Y-4251348D02*
X-7897645Y-4251348D01*
X-7911929Y-4265632D01*
X-4894652Y-5559348D02*
X-4450374Y-5115070D01*
X-4173374Y-4838070D01*
X-4427374Y-4838070D01*
X-4450374Y-4838070D01*
X-4450374Y-4861070D01*
X-4427374Y-4838070D01*
X-4317652Y-4728348D01*
X-4450374Y-5115070D02*
X-4450374Y-4861070D01*
D11*
X-5471652Y-5559348D02*
X-5256652Y-5774348D01*
X-4340652Y-5774348D01*
X-3771652Y-5205348D01*
X-3771652Y-4328348D01*
X-3879652Y-4220348D01*
X-4317652Y-4220348D01*
D10*
X-4894652Y-5305348D02*
X-4894652Y-5282348D01*
X-5471652Y-5282348D01*
X-5471652Y-5305348D01*
X-4894652Y-5282348D02*
X-4894652Y-4583218D01*
X-4782613Y-4471179D01*
X-4320821Y-4471179D01*
X-4317652Y-4474348D01*
D11*
X-6267652Y-4781348D02*
X-6071652Y-4585348D01*
X-6071652Y-4035348D01*
X-5871652Y-3835348D01*
X-5518285Y-5559348D02*
X-6071652Y-5559348D01*
X-6071652Y-4781348D01*
X-6267652Y-4781348D01*
D10*
X-6324431Y-6053039D02*
X-6242116Y-5970724D01*
X-6242116Y-5630884D01*
X-6421652Y-5451348D01*
D11*
X-5518285Y-5559348D02*
X-5471652Y-5559348D01*
D10*
X-6421652Y-4551348D02*
X-6226343Y-4356039D01*
X-6226343Y-4306558D01*
X-6249862Y-4283039D01*
X-6249862Y-3949861D01*
X-6128349Y-3828348D01*
X-5912763Y-3612762D01*
X-5626621Y-3612762D01*
X-5487238Y-3612762D01*
X-5171652Y-3928348D01*
X-5171652Y-4128348D01*
X-5171652Y-4467348D01*
X-5521652Y-4817348D01*
X-8497652Y-6878348D02*
X-7876000Y-7500000D01*
X-4043304Y-7500000D01*
X-2971652Y-6428348D01*
X-3000055Y-5805108D02*
X-3276815Y-5528348D01*
X-3571652Y-5528348D01*
X-4450374Y-5537216D02*
X-4450374Y-5115070D01*
X-4807152Y-6574348D02*
X-4751152Y-6518348D01*
X-4700000Y-6518348D01*
X-4311652Y-6518348D01*
X-4700000Y-6518348D02*
X-4700000Y-7200000D01*
X-5771652Y-6228348D02*
X-5771652Y-6574348D01*
D11*
X-5171652Y-6828348D02*
X-4900000Y-7000000D01*
X-5783506Y-5845292D02*
X-5518285Y-5580071D01*
X-5518285Y-5559348D01*
X-5771652Y-6828348D02*
X-5771652Y-7350000D01*
X-4393304Y-7350000D01*
X-4311652Y-7268348D01*
X-4311652Y-6772348D01*
D10*
X-5875652Y+1121652D02*
X-5875652Y+1243478D01*
X-5876196Y+1244022D01*
X-4920218Y+2200000D01*
X-2543304Y+2200000D01*
X-2467119Y+2198933D01*
X-2443296Y+1816787D02*
X-1880517Y+1816787D01*
X-1871652Y+1825652D01*
D12*
X-8533142Y-4314388D03*
X-9971652Y-4328348D03*
X-3620535Y-470198D03*
X-2955159Y-458626D03*
X-6805578Y-2061591D03*
X-6631606Y-2954649D03*
X-4871652Y-2728348D03*
X-4871652Y-1828348D03*
X-6408578Y-2526421D03*
X-6595000Y-1064174D03*
X-6166098Y-3597270D03*
X-7602687Y-3628628D03*
X-7911929Y-4265632D03*
X-6324431Y-6053039D03*
X-2971652Y-6428348D03*
X-3000055Y-5805108D03*
X-3571652Y-5528348D03*
X-4450374Y-5537216D03*
X-4700000Y-7200000D03*
X-5771652Y-6228348D03*
X-4900000Y-7000000D03*
X-5783506Y-5845292D03*
X-2467119Y+2198933D03*
X-2443296Y+1816787D03*
D13*
X-10021652Y-6878348D03*
X-9767652Y-6878348D03*
X-9513652Y-6878348D03*
X-9259652Y-6878348D03*
X-9005652Y-6878348D03*
X-8751652Y-6878348D03*
X-8497652Y-6878348D03*
X-8497652Y-6624348D03*
X-8751652Y-6624348D03*
X-9005652Y-6624348D03*
X-9259652Y-6624348D03*
X-9513652Y-6624348D03*
X-9767652Y-6624348D03*
X-10021652Y-6624348D03*
X-8021652Y-6882348D03*
X-7767652Y-6882348D03*
X-7513652Y-6882348D03*
X-7259652Y-6882348D03*
X-7005652Y-6882348D03*
X-6751652Y-6882348D03*
X-6497652Y-6882348D03*
X-6497652Y-6628348D03*
X-6751652Y-6628348D03*
X-7005652Y-6628348D03*
X-7259652Y-6628348D03*
X-7513652Y-6628348D03*
X-7767652Y-6628348D03*
X-8021652Y-6628348D03*
D14*
X-7421652Y-4251348D03*
X-6405652Y-4251348D03*
X-7437652Y-5451348D03*
X-6421652Y-5451348D03*
X-6421652Y-5751348D03*
X-7437652Y-5751348D03*
X-8971652Y-5801348D03*
X-9987652Y-5801348D03*
X-9987652Y-5501348D03*
X-8971652Y-5501348D03*
X-5871652Y-4851348D03*
X-5871652Y-3835348D03*
X-5521652Y-4817348D03*
X-5521652Y-3801348D03*
X-6421652Y-4551348D03*
X-7437652Y-4551348D03*
X-6405652Y-3901348D03*
X-7421652Y-3901348D03*
X-5471652Y-5305348D03*
X-5471652Y-5559348D03*
X-4894652Y-5305348D03*
X-4894652Y-5559348D03*
X-5771652Y-6574348D03*
X-5771652Y-6828348D03*
X-5171652Y-6574348D03*
X-5171652Y-6828348D03*
D15*
X-8955652Y-5101348D03*
X-9971652Y-5101348D03*
X-8471652Y-5035348D03*
X-8471652Y-6051348D03*
D13*
X-5725652Y-2528348D03*
X-5621652Y-1878348D03*
X-5875652Y-1878348D03*
D14*
X-6405652Y-5101348D03*
X-7421652Y-5101348D03*
D13*
X-5671652Y+521652D03*
X-5621652Y+1121652D03*
X-5875652Y+1121652D03*
X-4311652Y-6264348D03*
X-4311652Y-6518348D03*
X-4311652Y-6772348D03*
X-4317652Y-4220348D03*
X-4317652Y-4474348D03*
X-4317652Y-4728348D03*
X-1871652Y-228348D03*
X-1871652Y-482348D03*
X-1871652Y-736348D03*
X-1871652Y+1825652D03*
X-1871652Y+1571652D03*
X-1871652Y+1317652D03*
D16*
X-1748532Y-4455228D03*
X-1748532Y-4851468D03*
X-1671652Y-6432108D03*
X-1671652Y-6828348D03*
X-1721652Y-2132108D03*
X-1721652Y-2528348D03*
D17*
X-7471652Y-3098348D03*
D18*
X-7471652Y-2844348D03*
X-7471652Y-2590348D03*
X-7471652Y-2336348D03*
X-7471652Y-2082348D03*
X-7471652Y-1828348D03*
X-7471652Y-1574348D03*
X-7471652Y-1320348D03*
X-7471652Y-1066348D03*
X-7471652Y-812357D03*
X-7471652Y-558348D03*
X-7471652Y-304348D03*
X-7471652Y-50348D03*
X-7471652Y+203652D03*
X-7471652Y+457652D03*
X-7471652Y+711652D03*
X-7471652Y+965652D03*
X-7471652Y+1219652D03*
X-7471652Y+1473652D03*
X-10011652Y+1473652D03*
X-10011652Y+1219652D03*
X-10011652Y+965652D03*
X-10011652Y+711652D03*
X-10011652Y+457652D03*
X-10011652Y+203652D03*
X-10011652Y-50348D03*
X-10011652Y-304348D03*
X-10011652Y-558348D03*
X-10011652Y-812357D03*
X-10011652Y-1066348D03*
X-10011652Y-1320348D03*
X-10011652Y-1574348D03*
X-10011652Y-1828348D03*
X-10011652Y-2082348D03*
X-10011652Y-2336348D03*
X-10011652Y-2590348D03*
X-10011652Y-2844348D03*
X-10011652Y-3098348D03*
D16*
X-3261652Y-2158348D03*
X-3261652Y-1758348D03*
D13*
X-4371652Y-1328348D03*
X-4371652Y-1578348D03*
X-4371652Y-1828348D03*
X-4371652Y-2078348D03*
X-4371652Y-2328348D03*
X-4371652Y-2578348D03*
D16*
X-3271652Y+871652D03*
X-3271652Y+1271652D03*
D13*
X-4381652Y+1701652D03*
X-4381652Y+1451652D03*
X-4381652Y+1201652D03*
X-4381652Y+951652D03*
X-4381652Y+701652D03*
X-4381652Y+451652D03*
D19*
X-1100000Y-7400000D03*
X-10200000Y-7400000D03*
X-10200000Y+2000000D03*
X-1100000Y+2000000D03*
D70*
X-10450000Y-7628348D02*
X-800000Y-7628348D01*
X-800000Y+2300000D01*
X-10450000Y+2300000D01*
X-10450000Y-7628348D01*
M02*
